<?xml version="1.0" encoding="UTF-8"?>
<svg version="1.1" xmlns="http://www.w3.org/2000/svg" width="512" height="512">
<path d="M0 0 C0.99 0 1.98 0 3 0 C3.43117571 5.92096649 2.22316391 9.71215537 -0.5 14.9375 C-0.8594873 15.6389917 -1.21897461 16.3404834 -1.58935547 17.06323242 C-5.51276675 24.41215582 -10.7444875 31.37324602 -19 34 C-21.3125 33.375 -21.3125 33.375 -23 32 C-23.33 31.01 -23.66 30.02 -24 29 C-24.4125 29.49628906 -24.825 29.99257813 -25.25 30.50390625 C-30.87859691 37.12504592 -36.36082746 42.88359911 -44.26171875 46.70703125 C-45.15205811 47.14120361 -46.04239746 47.57537598 -46.9597168 48.02270508 C-47.63301025 48.3452124 -48.30630371 48.66771973 -49 49 C-48.35039307 48.98952637 -47.70078613 48.97905273 -47.03149414 48.96826172 C-44.04186999 48.92627038 -41.05230821 48.90053833 -38.0625 48.875 C-37.04091797 48.85824219 -36.01933594 48.84148437 -34.96679688 48.82421875 C-28.64311648 48.78381185 -23.11683473 49.37989987 -17 51 C-17 52.32 -17 53.64 -17 55 C-22.01508132 55.1644289 -26.51425793 54.99586948 -31.4375 54 C-36.68281917 52.94797271 -41.6663791 52.79174582 -47 53 C-46.67 53.66 -46.34 54.32 -46 55 C-35.11 55.495 -35.11 55.495 -24 56 C-26.76031059 69.80155293 -39.34390835 78.89875784 -50.4375 86.3125 C-51.283125 86.869375 -52.12875 87.42625 -53 88 C-52.75368443 92.05085679 -52.75368443 92.05085679 -52 96 C-50.07935207 97.5899433 -50.07935207 97.5899433 -48 98 C-48 99.65 -48 101.3 -48 103 C-47.0409375 103.4640625 -47.0409375 103.4640625 -46.0625 103.9375 C-44 105 -44 105 -43 106 C-42.95936168 107.66617115 -42.957279 109.33388095 -43 111 C-45.39473623 110.32743578 -47.77420211 109.62517906 -50.1484375 108.8828125 C-51.93149002 108.33079898 -53.72791924 107.81858013 -55.5390625 107.3671875 C-62.23658015 105.34730123 -65.33646969 101.45580496 -69.23901367 95.93457031 C-73.02999146 90.65925885 -77.40072236 87.29369273 -83 84 C-83.92167969 83.44570313 -84.84335937 82.89140625 -85.79296875 82.3203125 C-86.88544922 81.66675781 -86.88544922 81.66675781 -88 81 C-87.505 79.515 -87.505 79.515 -87 78 C-86.40985107 78.21205078 -85.81970215 78.42410156 -85.21166992 78.64257812 C-82.53866976 79.5999451 -79.86314307 80.55004585 -77.1875 81.5 C-76.25873047 81.83386719 -75.32996094 82.16773438 -74.37304688 82.51171875 C-73.48037109 82.82753906 -72.58769531 83.14335937 -71.66796875 83.46875 C-70.43469849 83.90864258 -70.43469849 83.90864258 -69.17651367 84.35742188 C-66.89869346 85.14157525 -66.89869346 85.14157525 -64 85 C-65.03060547 84.29423828 -65.03060547 84.29423828 -66.08203125 83.57421875 C-67.43361328 82.64029297 -67.43361328 82.64029297 -68.8125 81.6875 C-69.70582031 81.07261719 -70.59914063 80.45773437 -71.51953125 79.82421875 C-75.84235977 76.6450677 -75.84235977 76.6450677 -77 75 C-76.86354664 70.64785609 -74.8918121 68.15629891 -72.1875 64.875 C-71.15689453 63.60269531 -71.15689453 63.60269531 -70.10546875 62.3046875 C-66.68554535 58.56117209 -64.37623402 56.68942897 -59.25 56.3125 C-58.45078125 56.24675781 -57.6515625 56.18101562 -56.828125 56.11328125 C-56.22484375 56.07589844 -55.6215625 56.03851563 -55 56 C-54.67 54.35 -54.34 52.7 -54 51 C-54.99 50.34 -55.98 49.68 -57 49 C-54.525 47.02 -54.525 47.02 -52 45 C-54.9503482 44.65644449 -54.9503482 44.65644449 -56.3671875 46.29296875 C-56.86476563 46.91816406 -57.36234375 47.54335938 -57.875 48.1875 C-70.05203673 62.61103407 -87.48645863 80.48253761 -107 84 C-115.24011713 84.44143485 -115.24011713 84.44143485 -118 82 C-118.75 78.375 -118.75 78.375 -119 75 C-118.34 74.67 -117.68 74.34 -117 74 C-115.515 74.495 -115.515 74.495 -114 75 C-104.21235059 76.0875166 -95.5275923 71.36622969 -87 67 C-88.17175781 67.28875 -89.34351563 67.5775 -90.55078125 67.875 C-99.11466427 69.92070508 -107.12651021 71.70362474 -116 71 C-116.474375 69.865625 -116.94875 68.73125 -117.4375 67.5625 C-118.63622083 64.24259834 -118.63622083 64.24259834 -120 63 C-122.41537838 62.58282721 -122.41537838 62.58282721 -125 63 C-127.00965774 64.59616005 -127.00965774 64.59616005 -128 67 C-128.24401278 69.61391389 -128.24401278 69.61391389 -127 72 C-124.03292954 73.85916824 -124.03292954 73.85916824 -121 75 C-123.75 79.875 -123.75 79.875 -126 81 C-129.86108501 81.3642533 -132.21512257 81.45961291 -135.6015625 79.4765625 C-138.66342768 76.3149623 -139.28741287 73.25102505 -140.0625 69.0625 C-141.22489753 62.99467363 -142.57108398 58.43034519 -147.82421875 54.70703125 C-154.37059655 51.56422095 -160.64327091 50.13289012 -167.875 49.6875 C-171.75873865 49.28434374 -171.75873865 49.28434374 -173.75 46.9375 C-174.1625 45.968125 -174.575 44.99875 -175 44 C-175.81004395 42.59052352 -176.64518805 41.19528403 -177.5 39.8125 C-177.9021875 39.13832031 -178.304375 38.46414063 -178.71875 37.76953125 C-180.04946312 35.71524183 -180.04946312 35.71524183 -183 34 C-184.65 34 -186.3 34 -188 34 C-188.66 38.29 -189.32 42.58 -190 47 C-190.66 47 -191.32 47 -192 47 C-193.12918033 44.62690978 -194.25342065 42.25168006 -195.375 39.875 C-195.69210938 39.20984375 -196.00921875 38.5446875 -196.3359375 37.859375 C-199.51091913 31.11253904 -201.59697601 25.52189777 -201 18 C-199.22801395 13.80319092 -197.1825666 11.77981558 -193 10 C-183.40725314 7.8160121 -176.87266565 10.60873067 -168.3125 14.75 C-165.05529607 16.25611658 -163.31116254 17 -159.6875 17 C-156.88867377 16.01737189 -156.88867377 16.01737189 -153.9375 14.4375 C-150.94406196 12.97262606 -149.27052479 12.71142428 -146 13 C-148 15 -150 17 -152 19 C-150.88625 18.34 -149.7725 17.68 -148.625 17 C-138.71914003 12.55727675 -125.46259642 14.64998756 -115 16 C-117.82553984 20.23830976 -120.12180888 19.97715348 -125 21 C-118.03248858 25.74152725 -111.67672587 28.8823789 -103 28 C-96.5043558 26.05865238 -91.35079048 23.09847782 -86 19 C-85.67 19 -85.34 19 -85 19 C-84.91836534 22.9184639 -85.20380628 25.00429603 -87.68359375 28.10546875 C-96.62249128 36.5982181 -106.86370368 39.10794673 -119 39 C-126.16070981 38.48302095 -130.64602017 35.61005843 -136 31 C-139.55231582 27.44596909 -139.55231582 27.44596909 -144 26 C-134.0737639 35.34703922 -127.08768902 40.61498669 -113.14453125 40.45703125 C-98.65768399 39.33732518 -83.89672763 30.45060487 -70.97265625 24.453125 C-70.10906494 24.05254883 -69.24547363 23.65197266 -68.35571289 23.23925781 C-65.95309597 22.06374169 -65.95309597 22.06374169 -63.87670898 20.34667969 C-62 19 -62 19 -59 19 C-60.45077184 28.31461465 -66.76446077 35.2147263 -73.046875 41.87109375 C-75.13914586 44.04215879 -75.13914586 44.04215879 -77 47 C-75.2456027 45.44221619 -73.49653989 43.87905295 -71.75 42.3125 C-70.77546875 41.44238281 -69.8009375 40.57226562 -68.796875 39.67578125 C-65.97856496 37.11943731 -65.97856496 37.11943731 -63.9296875 34.27734375 C-61.77277287 31.73183519 -60.52532811 31.17354896 -57.375 30.25 C-50.04527545 27.59351699 -44.57043127 22.30815433 -39.8359375 16.21484375 C-39.23007812 15.48394531 -38.62421875 14.75304687 -38 14 C-37.34 14 -36.68 14 -36 14 C-36.60108576 19.65020618 -38.07528683 24.66164461 -40 30 C-32.72233853 24.01129765 -25.65004432 17.37511616 -20.5625 9.375 C-19.7890625 8.199375 -19.7890625 8.199375 -19 7 C-18.34 7 -17.68 7 -17 7 C-16.77422598 12.4185766 -17.53329887 16.77487721 -19 22 C-10.32513215 16.05151919 -4.30418202 9.64136773 0 0 Z M-158 23 C-158.33 23.33 -158.66 23.66 -159 24 C-161.33297433 24.04092937 -163.66705225 24.04241723 -166 24 C-166.84454356 27.37817425 -167.10844919 29.67465243 -166 33 C-166.78375 32.484375 -167.5675 31.96875 -168.375 31.4375 C-169.24125 30.963125 -170.1075 30.48875 -171 30 C-171.99 30.495 -171.99 30.495 -173 31 C-172.39671875 31.60328125 -171.7934375 32.2065625 -171.171875 32.828125 C-167.44791667 36.55208333 -163.72395833 40.27604167 -160 44 C-162.31 43.01 -164.62 42.02 -167 41 C-167 42.65 -167 44.3 -167 46 C-165.99839844 46.04898438 -164.99679688 46.09796875 -163.96484375 46.1484375 C-162.62237241 46.22354079 -161.2799257 46.29908526 -159.9375 46.375 C-158.62652344 46.44460938 -157.31554687 46.51421875 -155.96484375 46.5859375 C-152.01863043 46.99805436 -148.75882927 47.79756567 -145 49 C-145 49.66 -145 50.32 -145 51 C-141.3558226 53.4294516 -139.28758728 53.16179575 -135 53 C-135 52.67 -135 52.34 -135 52 C-139.455 51.01 -139.455 51.01 -144 50 C-144 48.68 -144 47.36 -144 46 C-141.70370006 44.85185003 -139.92301914 44.69230191 -137.375 44.4375 C-136.55773437 44.35371094 -135.74046875 44.26992188 -134.8984375 44.18359375 C-134.27195313 44.12300781 -133.64546875 44.06242187 -133 44 C-134.33303408 42.42712068 -134.33303408 42.42712068 -136 41 C-138.01267638 41.24544834 -140.01178687 41.60235737 -142 42 C-147.43330694 42.25620472 -152.65946264 42.12432365 -158 41 C-159.74448199 35.76655404 -159.67853621 30.12042565 -158 24.875 C-157.67 24.25625 -157.34 23.6375 -157 23 C-157.33 23 -157.66 23 -158 23 Z M-23 26 C-22 28 -22 28 -22 28 Z M-157 31 C-156 34 -156 34 -156 34 Z M-42 31 C-41 33 -41 33 -41 33 Z M-44 34 C-43 36 -43 36 -43 36 Z M-46 37 C-45 39 -45 39 -45 39 Z M-128 47 C-128 47.66 -128 48.32 -128 49 C-130.31 49.66 -132.62 50.32 -135 51 C-132.47159616 51.70795307 -130.19811536 52.0728986 -127.5625 52.3125 C-123.58432065 53.08021882 -122.08010688 54.50261604 -119 57 C-116.73575649 56.87436418 -116.73575649 56.87436418 -115 56 C-115.66 55.67 -116.32 55.34 -117 55 C-117 54.01 -117 53.02 -117 52 C-115.02 51.34 -113.04 50.68 -111 50 C-111 49.67 -111 49.34 -111 49 C-111.89203125 48.93941406 -112.7840625 48.87882812 -113.703125 48.81640625 C-114.87359375 48.73261719 -116.0440625 48.64882813 -117.25 48.5625 C-118.41015625 48.48128906 -119.5703125 48.40007812 -120.765625 48.31640625 C-123.30977376 48.06752213 -125.55953248 47.71885058 -128 47 Z M-81 48 C-81.33 48.66 -81.66 49.32 -82 50 C-81.01 49.67 -80.02 49.34 -79 49 C-79.66 48.67 -80.32 48.34 -81 48 Z M-115 57 C-115 57.33 -115 57.66 -115 58 C-111.7 58 -108.4 58 -105 58 C-105 57.67 -105 57.34 -105 57 C-108.3 57 -111.6 57 -115 57 Z M-64 63 C-57.4 63 -50.8 63 -44 63 C-51.375 66.4375 -51.375 66.4375 -53.69287109 67.51733398 C-57.3623582 69.22552141 -57.3623582 69.22552141 -61 71 C-61 72.32 -61 73.64 -61 75 C-61.99 75.495 -61.99 75.495 -63 76 C-63 76.66 -63 77.32 -63 78 C-53.27352281 76.61800054 -44.70402172 68.78678742 -38 62 C-38 61.67 -38 61.34 -38 61 C-41.77076889 60.94200876 -45.54142334 60.90640694 -49.3125 60.875 C-50.38435547 60.85824219 -51.45621094 60.84148437 -52.56054688 60.82421875 C-54.10258789 60.81455078 -54.10258789 60.81455078 -55.67578125 60.8046875 C-56.62364502 60.79421387 -57.57150879 60.78374023 -58.5480957 60.77294922 C-61.25689249 60.82776125 -61.25689249 60.82776125 -64 63 Z M-66 63 C-66.33 63.66 -66.66 64.32 -67 65 C-66.01 64.67 -65.02 64.34 -64 64 C-64.66 63.67 -65.32 63.34 -66 63 Z " fill="#FFFFFF" transform="translate(362,375)"/>
<path d="M0 0 C-0.144375 0.59425781 -0.28875 1.18851562 -0.4375 1.80078125 C-2.35404317 10.35867889 -2.73916544 18.11514418 -0.75 26.6875 C0.09590421 30.71561527 0.03329322 32.80532138 -1.9375 36.4375 C-2.33839844 37.03433594 -2.73929687 37.63117188 -3.15234375 38.24609375 C-4.21689244 40.01791511 -4.21689244 40.01791511 -3.62890625 42.22265625 C-3.42136719 42.80917969 -3.21382813 43.39570312 -3 44 C-2.01 44 -1.02 44 0 44 C0.07476562 43.3709375 0.14953125 42.741875 0.2265625 42.09375 C1.26615993 35.3261746 3.41380884 31.05297906 8 26 C8.51304687 25.42507812 9.02609375 24.85015625 9.5546875 24.2578125 C10.03164063 23.84273437 10.50859375 23.42765625 11 23 C13.1875 23.3125 13.1875 23.3125 15 24 C14.57830499 27.37356012 13.60498142 29.78266488 11.9375 32.6875 C8.70862984 38.92296303 9.75917252 45.19259703 10.625 51.9375 C11.50796621 59.84688744 9.33597556 67.49150711 7 75 C5.52031676 74.85950482 4.04125484 74.71245174 2.5625 74.5625 C1.32693359 74.44068359 1.32693359 74.44068359 0.06640625 74.31640625 C-2 74 -2 74 -3 73 C-2.99086264 70.0212215 -2.86680056 67.05417809 -2.7421875 64.078125 C-3.03595728 60.57069189 -3.91603356 58.80360953 -6 56 C-8.06700655 54.67206394 -8.06700655 54.67206394 -10 54 C-12.98408405 58.10311557 -13.61917707 60.95812953 -13 66 C-11.10179443 69.94826758 -9.6284283 71.64265842 -5.8125 73.8125 C-1.60140423 75.12415278 2.56168155 76.18062924 7 76 C7.99 75.34 8.98 74.68 10 74 C10.99 74 11.98 74 13 74 C13 74.66 13 75.32 13 76 C14.98 76.495 14.98 76.495 17 77 C16.34 78.98 15.68 80.96 15 83 C15.66 83 16.32 83 17 83 C16.87431641 84.37671875 16.87431641 84.37671875 16.74609375 85.78125 C16.1980586 92.38542041 15.82400343 98.46668574 17 105 C18.98 104.67 20.96 104.34 23 104 C23 106.62113708 22.68707555 108.50935112 22 111 C22.70125 110.360625 23.4025 109.72125 24.125 109.0625 C27.22841233 106.83613898 29.24620139 106.34919057 33 106 C32.57900692 108.84170331 31.91373451 110.1057448 30.0625 112.375 C26.00856398 117.53455493 25.64908531 123.05961771 25.375 129.375 C25.33632813 130.11105469 25.29765625 130.84710938 25.2578125 131.60546875 C25.16442002 133.40327406 25.0811629 135.20160108 25 137 C23.741875 137.061875 22.48375 137.12375 21.1875 137.1875 C18.99167977 137.38931519 18.99167977 137.38931519 17 138 C15.0645852 140.39056942 15.0645852 140.39056942 14 143 C10.53785023 144.73107488 6.78509418 144.48819473 3 144 C0.63814832 142.90291271 -0.96522046 141.6695627 -3 140 C-0.08235 138.0549 1.62537285 137.54723683 5 137 C5 136.01 5 135.02 5 134 C2.69 133.01 0.38 132.02 -2 131 C-0.96785923 128.77692758 -0.05324158 127.05733708 1.625 125.25 C3.67264788 121.89930347 3.74530843 118.75548617 3 115 C-0.14353915 109.6255621 -3.30403662 108.12087704 -9.20703125 106.4453125 C-9.79871094 106.29835938 -10.39039063 106.15140625 -11 106 C-10.41196203 102.97580475 -9.77321882 99.98241547 -9 97 C-10.65 96.67 -12.3 96.34 -14 96 C-13.67 93.36 -13.34 90.72 -13 88 C-14.98 87.67 -16.96 87.34 -19 87 C-19 84.69 -19 82.38 -19 80 C-21.31 79.34 -23.62 78.68 -26 78 C-25.34 74.37 -24.68 70.74 -24 67 C-24.99 68.32 -25.98 69.64 -27 71 C-27.350625 70.34 -27.70125 69.68 -28.0625 69 C-29.96557142 66.58896039 -29.96557142 66.58896039 -33.6875 66.75 C-34.780625 66.8325 -35.87375 66.915 -37 67 C-36.37240135 64.07120629 -35.41377341 61.63904371 -34 59 C-37.38266921 59.2818891 -38.81072018 59.83064437 -41.375 62.125 C-43.5311919 65.93980105 -43.03180423 67.79908276 -42 72 C-41.37743972 74.01416562 -40.72433347 76.02015519 -40 78 C-42.31 78 -44.62 78 -47 78 C-41.68376389 80.37482656 -36.3576845 82.72013426 -31 85 C-32.92576115 87.43929746 -34.80090595 89.80090595 -37 92 C-35.02 92.99 -35.02 92.99 -33 94 C-33.54723683 97.37462715 -34.0549 99.08235 -36 102 C-34.02 102.495 -34.02 102.495 -32 103 C-32.54723683 106.37462715 -33.0549 108.08235 -35 111 C-35.54534428 114.06540892 -35.53895469 116.93334783 -35 120 C-32.56246638 123.09632649 -30.26549269 124.82300487 -27 127 C-28 130 -28 130 -30.625 132.3125 C-33.30971391 134.79429355 -33.30971391 134.79429355 -33.1875 138.125 C-32.22941466 141.23638074 -32.22941466 141.23638074 -29.1875 142.75 C-27.6096875 143.36875 -27.6096875 143.36875 -26 144 C-24.66147724 144.65618522 -23.32694071 145.32069847 -22 146 C-22.72445312 146.45890625 -23.44890625 146.9178125 -24.1953125 147.390625 C-29.16469814 150.54452842 -34.12303 153.70475 -39 157 C-39.37125 155.5459375 -39.37125 155.5459375 -39.75 154.0625 C-41.64559723 150.75657805 -41.64559723 150.75657805 -44.66015625 150.484375 C-46.78802294 150.36835749 -48.9171537 150.27381044 -51.046875 150.19921875 C-54.64531058 149.95646714 -57.00825136 148.99449909 -60 147 C-60.598125 146.608125 -61.19625 146.21625 -61.8125 145.8125 C-63.79272852 142.79004594 -63.70795268 139.56297726 -64 136 C-63.278125 136.309375 -62.55625 136.61875 -61.8125 136.9375 C-58.0001728 138.40886262 -58.0001728 138.40886262 -54 139 C-51.17098867 136.79965786 -50.13960155 135.41880464 -49 132 C-47.86303395 119.80197852 -50.16980727 110.51108616 -57.875 100.9375 C-58.49117188 100.24527344 -59.10734375 99.55304688 -59.7421875 98.83984375 C-60.15726562 98.23269531 -60.57234375 97.62554687 -61 97 C-60.505 95.515 -60.505 95.515 -60 94 C-58.68 94 -57.36 94 -56 94 C-56.33 92.68 -56.66 91.36 -57 90 C-62.48946087 88.87970186 -65.83430559 89.20782031 -71 91 C-70.57492136 87.59937086 -69.56901537 85.08824699 -67.9375 82.125 C-65.95553798 78.27037534 -65.22740103 75.37806081 -66 71 C-68.78044742 68.126871 -71.71025181 67.72285172 -75.5625 67.4375 C-81.30105749 67.56694115 -85.59350918 69.9386546 -90.53125 72.6875 C-93 74 -93 74 -95 74 C-94.68660885 66.4786124 -91.32687284 62.07520903 -85.8828125 57.04296875 C-81.17135385 53.17109529 -76.81812184 50.79832857 -71 49 C-71.88429688 48.31550781 -72.76859375 47.63101563 -73.6796875 46.92578125 C-77.66708698 43.60685068 -80.43904049 39.6068258 -83.38671875 35.37695312 C-84.74908983 33.45131701 -84.74908983 33.45131701 -87 31 C-88.32 31 -89.64 31 -91 31 C-96.23422519 24.86994165 -100.08457859 16.12219115 -100.25 8 C-100 5 -100 5 -99 4 C-85.51661617 3.90877278 -73.53213027 7.03210812 -61.4375 12.9375 C-60.77049072 13.26113525 -60.10348145 13.58477051 -59.41625977 13.91821289 C-55.18488202 16.08689486 -52.19412528 18.47481376 -49 22 C-49.495 23.485 -49.495 23.485 -50 25 C-50.50974365 24.75765625 -51.0194873 24.5153125 -51.54467773 24.265625 C-53.84134671 23.1750939 -56.13939928 22.08751049 -58.4375 21 C-59.23994141 20.6184375 -60.04238281 20.236875 -60.86914062 19.84375 C-61.63291016 19.4828125 -62.39667969 19.121875 -63.18359375 18.75 C-64.24404907 18.24726562 -64.24404907 18.24726562 -65.32592773 17.734375 C-66.84794928 16.93304627 -66.84794928 16.93304627 -68 17 C-67.49025635 17.25692627 -66.9805127 17.51385254 -66.45532227 17.77856445 C-64.15242685 18.94644076 -61.85751527 20.12921874 -59.5625 21.3125 C-58.76005859 21.71662109 -57.95761719 22.12074219 -57.13085938 22.53710938 C-56.36708984 22.93349609 -55.60332031 23.32988281 -54.81640625 23.73828125 C-53.75595093 24.28029175 -53.75595093 24.28029175 -52.67407227 24.83325195 C-51 26 -51 26 -50 29 C-50.66 29 -51.32 29 -52 29 C-52 32.63 -52 36.26 -52 40 C-50.96875 39.21625 -49.9375 38.4325 -48.875 37.625 C-42.38100955 33.04939396 -36.74781912 32.72438588 -29 33 C-29.350625 33.845625 -29.70125 34.69125 -30.0625 35.5625 C-31.15648656 39.57378406 -31.13105875 42.0035924 -30 46 C-27.05233576 48.77427223 -25.48573534 49.00852167 -21.4375 48.9375 C-17.60282498 47.89167954 -16.14255152 47.34238038 -14 44 C-13.19983373 39.98267037 -13.33459357 37.03803403 -15.5625 33.5625 C-18.68103694 31.56343786 -21.34186183 31.28139524 -25 31 C-26 28 -26 28 -24.8828125 25.21484375 C-11.35876043 0 -11.35876043 0 0 0 Z M-90 12 C-86 13 -86 13 -86 13 Z M-83 13 C-83 13.33 -83 13.66 -83 14 C-81.35 14 -79.7 14 -78 14 C-78 13.67 -78 13.34 -78 13 C-79.65 13 -81.3 13 -83 13 Z M-78 14 C-74 15 -74 15 -74 15 Z M-82 20 C-79.56816404 27.78187509 -73.24796243 34.91342353 -67 40 C-63.85309877 41.27374573 -62.57994959 41.1483592 -59.3125 40.3125 C-56.69720287 38.82814217 -56.01940388 37.7801924 -55 35 C-56.24330078 35.39251953 -56.24330078 35.39251953 -57.51171875 35.79296875 C-62.44030163 36.08548263 -64.89062883 34.08650644 -68.8125 31.3125 C-69.49248047 30.86455078 -70.17246094 30.41660156 -70.87304688 29.95507812 C-75.81635265 26.56918474 -75.81635265 26.56918474 -76.69799805 23.83666992 C-76.79765869 23.23056885 -76.89731934 22.62446777 -77 22 C-76.34 21.67 -75.68 21.34 -75 21 C-77.31 20.67 -79.62 20.34 -82 20 Z M-85 23 C-84 25 -84 25 -84 25 Z M-76 37 C-75.67 37.99 -75.34 38.98 -75 40 C-75 39.01 -75 38.02 -75 37 C-75.33 37 -75.66 37 -76 37 Z M-63.39453125 43.66015625 C-66.19944325 44.02601434 -68.27587454 43.69937153 -71 43 C-70.505 43.433125 -70.01 43.86625 -69.5 44.3125 C-68 46 -68 46 -68 49 C-67.01 49 -66.02 49 -65 49 C-65.0825 50.299375 -65.165 51.59875 -65.25 52.9375 C-65.20996462 61.4516907 -61.13910097 67.33327662 -55.68359375 73.56640625 C-53.98785744 75.32415739 -53.98785744 75.32415739 -51 75 C-51.598125 74.360625 -52.19625 73.72125 -52.8125 73.0625 C-57.28615965 66.79937649 -59.07538643 59.65339951 -58 52 C-57.19979586 49.49754342 -56.18298384 47.36596768 -55 45 C-54.67 44.01 -54.34 43.02 -54 42 C-57.21253841 42 -60.273664 42.93777699 -63.39453125 43.66015625 Z M-15 77 C-14.97474816 79.91038542 -14.97474816 79.91038542 -14 83 C-11.04928156 84.93469849 -11.04928156 84.93469849 -8 86 C-8 88.31 -8 90.62 -8 93 C-6.576875 93.433125 -6.576875 93.433125 -5.125 93.875 C-2 95 -2 95 0 97 C1.42236837 91.69844517 0.61057785 88.78605938 -2 84 C-4.99701801 80.45089972 -7.51546849 78.29815386 -12 77 C-12.99 77 -13.98 77 -15 77 Z M-51 90 C-51.12375 90.78375 -51.2475 91.5675 -51.375 92.375 C-52 95 -52 95 -54 97 C-52.15274948 97.69159401 -52.15274948 97.69159401 -50 98 C-49.01 97.34 -48.02 96.68 -47 96 C-47.33 94.35 -47.66 92.7 -48 91 C-48.99 90.67 -49.98 90.34 -51 90 Z M-1 99 C-1.7555432 101.7412565 -1.7555432 101.7412565 -1 105 C1.69302656 107.55752837 4.58047797 109.5450047 8 111 C10.23720624 110.75545784 10.23720624 110.75545784 12 110 C10.92456217 109.01216806 9.83926783 108.03506057 8.75 107.0625 C8.14671875 106.51722656 7.5434375 105.97195312 6.921875 105.41015625 C4.89996692 103.92660174 3.40239914 103.57006081 1 103 C-0.25 100.9375 -0.25 100.9375 -1 99 Z M17 126 C16.67 127.65 16.34 129.3 16 131 C16.66 130.34 17.32 129.68 18 129 C17.67 128.01 17.34 127.02 17 126 Z " fill="#FFFFFF" transform="translate(473,76)"/>
<path d="M0 0 C-0.33 1.98 -0.66 3.96 -1 6 C-0.113125 5.773125 0.77375 5.54625 1.6875 5.3125 C5 5 5 5 7.8125 6.125 C10 8 10 8 11.1875 10.1875 C10.88389503 14.74157454 7.89139195 17.62251896 5 21 C3.02 20.67 1.04 20.34 -1 20 C-1.66 21.32 -2.32 22.64 -3 24 C-2.34 24 -1.68 24 -1 24 C-1.12568359 25.42892578 -1.12568359 25.42892578 -1.25390625 26.88671875 C-1.35574219 28.14097656 -1.45757812 29.39523438 -1.5625 30.6875 C-1.66691406 31.92886719 -1.77132812 33.17023438 -1.87890625 34.44921875 C-1.98493841 37.55835533 -1.77228525 40.00810972 -1 43 C3.65490118 42.88386964 3.65490118 42.88386964 7.54296875 40.59765625 C8.74293434 39.10209796 9.876145 37.55356427 11 36 C11.33 36 11.66 36 12 36 C12.42261236 40.31064602 12.49562128 42.32945356 9.875 45.875 C6.76878461 48.17089833 4.81136138 48.73409107 1 49 C2.98 51.97 4.96 54.94 7 58 C7.5878125 56.9171875 7.5878125 56.9171875 8.1875 55.8125 C10.1469419 52.77198671 12.41573672 50.51625635 15 48 C15.495 47.01 15.495 47.01 16 46 C17.485 46.495 17.485 46.495 19 47 C19.40652968 52.42039575 18.03993514 56.07015675 16 61 C17.17487036 60.24172908 18.33972592 59.46792245 19.5 58.6875 C20.1496875 58.25824219 20.799375 57.82898438 21.46875 57.38671875 C22.22671875 56.70029297 22.22671875 56.70029297 23 56 C23 55.01 23 54.02 23 53 C25.25 53.125 25.25 53.125 28 54 C31.27560914 58.18550056 33.14517882 61.67279257 33.125 67 C33.12757813 67.680625 33.13015625 68.36125 33.1328125 69.0625 C33 71 33 71 32 74 C26.41172693 76.06259377 20.77095909 76.59296016 14.87304688 77.12304688 C10.34591309 77.60576719 6.86186572 78.56061754 3 81 C2.505 82.485 2.505 82.485 2 84 C2.88042969 83.62746094 3.76085937 83.25492187 4.66796875 82.87109375 C6.41013672 82.16146484 6.41013672 82.16146484 8.1875 81.4375 C9.33605469 80.96183594 10.48460938 80.48617187 11.66796875 79.99609375 C15.10911504 78.96738062 16.66952189 78.76329397 20 80 C24.16757968 83.09945857 24.97036187 88.1449702 26 93 C26.21041343 95.73099097 26.15242086 98.25642451 26 101 C23.65941363 98.87219421 22.29299694 96.88437779 21 94 C16.53738465 95.37311241 12.37332163 97.13345573 8.1484375 99.09765625 C3.56610717 101.02223499 -1.0488258 101.6881941 -6 101 C-11.36335304 98.21518208 -14.79619663 94.70855759 -17.25 89.1875 C-18.87969762 82.2612851 -18.43120707 76.25365159 -15 70 C-12.80762422 67.49442768 -11.3490787 66.23380448 -8.0390625 65.66015625 C-4.67721294 65.50393647 -2.39763846 65.76141692 0.5 67.5 C0.995 67.995 1.49 68.49 2 69 C1.67 67.02 1.34 65.04 1 63 C0.01 63.495 0.01 63.495 -1 64 C-2.134375 63.360625 -3.26875 62.72125 -4.4375 62.0625 C-10.16424524 59.07960366 -16.03771158 58.89166757 -22.234375 60.625 C-28.72072385 63.44077934 -33.34744271 68.47551941 -36.32421875 74.82421875 C-37.9574891 79.11656786 -39 82.36970067 -39 87 C-37.35 86.67 -35.7 86.34 -34 86 C-33.97421875 86.81082031 -33.9484375 87.62164062 -33.921875 88.45703125 C-33.16582157 103.2172562 -28.55853903 112.78354299 -17.9375 122.9375 C-9.46145686 131.26570518 -5.65176638 141.04845012 -4.6875 152.8125 C-5.04357421 156.44445693 -5.70249958 159.58552522 -7 163 C-7.99 163.33 -8.98 163.66 -10 164 C-9.95359375 163.01 -9.9071875 162.02 -9.859375 161 C-9.34687991 150.30301395 -9.34687991 150.30301395 -14 141 C-18.20141415 136.87084604 -23.15780488 134.38625054 -28.375 131.75 C-39.55708564 125.82854793 -46.34478498 117.71533817 -51 106 C-51.89676151 103.00792825 -52.11765014 100.35342115 -52.09765625 97.234375 C-52.09443359 96.34492188 -52.09121094 95.45546875 -52.08789062 94.5390625 C-52.07532227 93.15847656 -52.07532227 93.15847656 -52.0625 91.75 C-52.05798828 90.81414062 -52.05347656 89.87828125 -52.04882812 88.9140625 C-52.03706918 86.60930959 -52.02063426 84.30468773 -52 82 C-52.09796875 83.01320313 -52.1959375 84.02640625 -52.296875 85.0703125 C-52.44705923 86.42197055 -52.59814923 87.77352817 -52.75 89.125 C-52.811875 89.79015625 -52.87375 90.4553125 -52.9375 91.140625 C-53.60247496 96.79291218 -55.58464186 100.52318236 -59.53515625 104.57421875 C-66.64608219 109.75737449 -75.29529942 111.8290191 -84 111 C-92.82164053 109.3008076 -99.77915957 105.62670079 -104.9375 98.125 C-107.24839331 94.10807807 -107.75385205 90.59476181 -108 86 C-105.18504025 87.07630814 -102.70938713 88.17689479 -100.125 89.75 C-97.01305109 91.27764476 -97.01305109 91.27764476 -93.5 90.625 C-87.58475561 87.87863653 -85.0609499 84.58496634 -82.5859375 78.5546875 C-80.06852966 71.51281038 -78.24797327 64.37438749 -77 57 C-78.98 59.64 -80.96 62.28 -83 65 C-84 63 -84 63 -83.56616211 61.06396484 C-82.7050659 58.4953343 -81.83197956 55.93222376 -80.9375 53.375 C-80.5053418 52.05822266 -80.5053418 52.05822266 -80.06445312 50.71484375 C-76.88727288 41.55748912 -71.81581882 35.17032552 -64.4375 29 C-63.88642578 28.51144531 -63.33535156 28.02289063 -62.76757812 27.51953125 C-60.31849465 25.44521856 -58.47138582 24.08681638 -55.28515625 23.5 C-52.63290066 24.08032259 -51.66534207 24.89641002 -50 27 C-49.41734375 26.43152344 -48.8346875 25.86304687 -48.234375 25.27734375 C-41.91373978 19.32441844 -34.25841569 12.17524447 -25.44140625 10.51953125 C-22.39728909 9.87174312 -20.7152634 8.56867322 -18.25 6.6875 C-6.1269802 -2.08811881 -6.1269802 -2.08811881 0 0 Z M-23 17 C-24.485 18.98 -24.485 18.98 -26 21 C-24.35 21 -22.7 21 -21 21 C-20.67 21.99 -20.34 22.98 -20 24 C-20 22.02 -20 20.04 -20 18 C-20.99 17.67 -21.98 17.34 -23 17 Z M-27 21 C-27 24 -27 24 -27 24 Z M-29 24 C-28 26 -28 26 -28 26 Z M-22 25 C-21 27 -21 27 -21 27 Z M-30 26 C-30 29.3 -30 32.6 -30 36 C-27.82233925 31.64467851 -27.96960445 30.53374042 -29 26 C-29.33 26 -29.66 26 -30 26 Z M-37 30 C-37.9807664 32.94229921 -38.16488128 34.9908784 -38.1875 38.0625 C-38.20167969 38.94035156 -38.21585937 39.81820312 -38.23046875 40.72265625 C-38.22229436 43.19925055 -38.22229436 43.19925055 -36 45 C-34.52806688 42.05613377 -35.15063827 39.62609964 -35.4375 36.375 C-35.53933594 35.18648437 -35.64117187 33.99796875 -35.74609375 32.7734375 C-35.82988281 31.85820313 -35.91367188 30.94296875 -36 30 C-36.33 30 -36.66 30 -37 30 Z M-6 31 C-6 36.61 -6 42.22 -6 48 C-5.34 48 -4.68 48 -4 48 C-4.33 42.39 -4.66 36.78 -5 31 C-5.33 31 -5.66 31 -6 31 Z M-18 32 C-18.41572266 32.93972656 -18.41572266 32.93972656 -18.83984375 33.8984375 C-19.20207031 34.71570313 -19.56429687 35.53296875 -19.9375 36.375 C-20.29714844 37.18710938 -20.65679687 37.99921875 -21.02734375 38.8359375 C-21.6569903 40.23683785 -22.31312642 41.62625284 -23 43 C-22.24074219 42.98839844 -21.48148437 42.97679687 -20.69921875 42.96484375 C-19.70535156 42.95582031 -18.71148437 42.94679688 -17.6875 42.9375 C-16.70136719 42.92589844 -15.71523437 42.91429687 -14.69921875 42.90234375 C-12 43 -12 43 -9 44 C-8.52818095 40.03672 -8.82398714 37.74097982 -11.25 34.625 C-13.84861593 31.53968284 -13.84861593 31.53968284 -18 32 Z M-54 46 C-54.37125 46.78375 -54.7425 47.5675 -55.125 48.375 C-57.62137552 51.86992573 -59.89413201 52.14783872 -64 53 C-63.65213292 54.97536745 -63.65213292 54.97536745 -63 57 C-59.97562661 58.5121867 -57.33758466 58.17263369 -54 58 C-51.64630193 57.11935073 -51.64630193 57.11935073 -50 56 C-50.78697325 52.58978257 -51.87119943 49.31114834 -53 46 C-53.33 46 -53.66 46 -54 46 Z M-4 48 C-3 50 -3 50 -3 50 Z M-42.7890625 59.95703125 C-45.69118976 63.69548582 -48.25407683 67.58384138 -50 72 C-49.67 72.99 -49.34 73.98 -49 75 C-48.6596875 74.35933594 -48.319375 73.71867187 -47.96875 73.05859375 C-42.80001173 63.8345954 -36.37866621 57.02847515 -26 54 C-17.71370677 52.35409244 -10.9297265 53.23708348 -3 56 C-3.84147486 53.99382543 -3.84147486 53.99382543 -5 52 C-7.31006947 51.30378052 -7.31006947 51.30378052 -10 51 C-10.969375 50.649375 -11.93875 50.29875 -12.9375 49.9375 C-23.58237188 46.67886575 -35.51902708 52.00443792 -42.7890625 59.95703125 Z M-67 59 C-67.09498779 59.54301758 -67.18997559 60.08603516 -67.2878418 60.64550781 C-72.38555928 89.24113132 -72.38555928 89.24113132 -83 99 C-85.29629994 100.14814997 -87.07698086 100.30769809 -89.625 100.5625 C-90.44226563 100.64628906 -91.25953125 100.73007813 -92.1015625 100.81640625 C-92.72804688 100.87699219 -93.35453125 100.93757813 -94 101 C-94 101.33 -94 101.66 -94 102 C-87.0996314 102.50904359 -81.6292633 102.30922288 -76 98 C-72.81087903 94.81609001 -69.90949728 91.43745339 -67 88 C-66.01321415 86.9869582 -65.01910296 85.98052493 -64 85 C-63.67 85.66 -63.34 86.32 -63 87 C-62.46890625 85.91460937 -61.9378125 84.82921875 -61.390625 83.7109375 C-60.6773009 82.26551761 -59.96374699 80.82021111 -59.25 79.375 C-58.72792969 78.30572266 -58.72792969 78.30572266 -58.1953125 77.21484375 C-56.06281642 72.91036093 -53.7561525 68.93558712 -51 65 C-51.495 64.01 -51.495 64.01 -52 63 C-52.99580078 63.06960937 -52.99580078 63.06960937 -54.01171875 63.140625 C-55.33623047 63.19476563 -55.33623047 63.19476563 -56.6875 63.25 C-57.55761719 63.29640625 -58.42773438 63.3428125 -59.32421875 63.390625 C-62.80200497 62.88291898 -64.44665561 61.33711522 -67 59 Z M2 59 C2.33 60.32 2.66 61.64 3 63 C3.99 63 4.98 63 6 63 C4.68 61.68 3.36 60.36 2 59 Z M7 65 C9.711757 68.33950945 9.711757 68.33950945 13.5 68.375 C17.288243 68.33950945 17.288243 68.33950945 20 65 C15.71 65 11.42 65 7 65 Z M-8.5 71 C-11.76214135 74.91456963 -11.83528472 76.97618387 -12 82 C-11.67 82.66 -11.34 83.32 -11 84 C-10.01 84 -9.02 84 -8 84 C-6.08697693 80.73386305 -5.64325339 78.00554752 -5.375 74.25 C-5.26285156 72.77273437 -5.26285156 72.77273437 -5.1484375 71.265625 C-5.09945312 70.51796875 -5.05046875 69.7703125 -5 69 C-6.40344888 68.89588416 -6.40344888 68.89588416 -8.5 71 Z M-51 75 C-50 78 -50 78 -50 78 Z " fill="#FFFFFF" transform="translate(117,54)"/>
<path d="M0 0 C0.33 1.32 0.66 2.64 1 4 C-0.01578125 4.42410156 -1.0315625 4.84820312 -2.078125 5.28515625 C-19.92699433 12.83760608 -33.68473431 21.86609955 -46 37 C-45.03320312 36.52949219 -44.06640625 36.05898438 -43.0703125 35.57421875 C-22.06802673 25.47202463 -22.06802673 25.47202463 -11 27 C-7.875 28.5 -7.875 28.5 -6 30 C-7 32 -7 32 -8.71142578 32.59082031 C-9.81719971 32.83203613 -9.81719971 32.83203613 -10.9453125 33.078125 C-11.76765381 33.26608643 -12.58999512 33.45404785 -13.43725586 33.64770508 C-14.32421143 33.8464624 -15.21116699 34.04521973 -16.125 34.25 C-35.02659009 38.76142836 -50.94524065 46.29423016 -65 60 C-63.74509766 59.40251953 -63.74509766 59.40251953 -62.46484375 58.79296875 C-51.40310803 53.75822525 -38.34059501 48.88383299 -26 51 C-23.36522379 52.09861607 -21.36296794 53.35619621 -19 55 C-21 58 -21 58 -23.14794922 58.4765625 C-24.02467285 58.52554688 -24.90139648 58.57453125 -25.8046875 58.625 C-26.77486816 58.68969482 -27.74504883 58.75438965 -28.74462891 58.82104492 C-29.77765137 58.8801001 -30.81067383 58.93915527 -31.875 59 C-49.69213706 60.31953471 -64.47702792 64.5601786 -78 77 C-78.33 77.66 -78.66 78.32 -79 79 C-78.14019531 78.72285156 -77.28039062 78.44570313 -76.39453125 78.16015625 C-64.04231986 74.37501841 -50.28557089 71.4457885 -37.91796875 76.921875 C-36.25 77.9375 -36.25 77.9375 -34 80 C-34 80.99 -34 81.98 -34 83 C-34.94617188 82.97905273 -35.89234375 82.95810547 -36.8671875 82.93652344 C-40.46045091 82.86277594 -44.0536516 82.81772456 -47.64746094 82.78027344 C-49.18728977 82.76045829 -50.72704658 82.7333979 -52.26660156 82.69824219 C-66.64114103 82.37880798 -79.65729602 84.4325882 -92.8125 90.5625 C-93.47830078 90.85318359 -94.14410156 91.14386719 -94.83007812 91.44335938 C-98.10858162 92.91918119 -100.57553371 94.35000197 -103 97 C-103.66 97 -104.32 97 -105 97 C-105.66 96.01 -106.32 95.02 -107 94 C-109.20725073 93.63637182 -109.20725073 93.63637182 -111.625 93.8125 C-112.44226563 93.83957031 -113.25953125 93.86664063 -114.1015625 93.89453125 C-115.04128906 93.94673828 -115.04128906 93.94673828 -116 94 C-113.03 94.495 -113.03 94.495 -110 95 C-109.1875 96.625 -109.1875 96.625 -109 99 C-112.67123727 104.94993627 -117.72643941 107.24694234 -124 110 C-124.33 108.35 -124.66 106.7 -125 105 C-125.59538574 104.98018066 -126.19077148 104.96036133 -126.80419922 104.93994141 C-129.49492153 104.84483874 -132.18485148 104.73510158 -134.875 104.625 C-135.81214844 104.5940625 -136.74929688 104.563125 -137.71484375 104.53125 C-138.61074219 104.49257813 -139.50664062 104.45390625 -140.4296875 104.4140625 C-141.67081299 104.36693115 -141.67081299 104.36693115 -142.93701172 104.31884766 C-145 104 -145 104 -147 102 C-141.92168664 99.26635473 -137.11110156 96.91504456 -131.5 95.5 C-127.71700795 94.57050309 -127.71700795 94.57050309 -125.5 91.4375 C-125.335 90.633125 -125.17 89.82875 -125 89 C-124.01 88.01 -124.01 88.01 -123 87 C-122.79375 85.948125 -122.5875 84.89625 -122.375 83.8125 C-121.24122687 79.44837326 -118.49398486 77.63418554 -115.09765625 74.87890625 C-109.4010493 69.77635887 -106.33946585 63.14836788 -104 56 C-103.34 56 -102.68 56 -102 56 C-102 61.28 -102 66.56 -102 72 C-101.34 72 -100.68 72 -100 72 C-100.33 71.195625 -100.66 70.39125 -101 69.5625 C-101 64.51867927 -98.4840003 63.01477526 -95.08203125 59.5234375 C-91.76696048 55.50554685 -90.40767019 50.95462864 -89 46 C-88.01 46.495 -88.01 46.495 -87 47 C-87 50.96 -87 54.92 -87 59 C-85.96875 58.030625 -84.9375 57.06125 -83.875 56.0625 C-80.06281776 52.727693 -76.04810968 49.883756 -71.8125 47.125 C-71.21872559 46.7319165 -70.62495117 46.33883301 -70.01318359 45.93383789 C-66.73198394 43.83840921 -63.92334886 42.26938487 -60 42 C-57.6875 43.4375 -57.6875 43.4375 -56 45 C-52.69430018 42.79620012 -52.66910232 42.62416228 -51.8125 39.0625 C-49.88275432 32.7781973 -46.04533097 28.09075358 -42 23 C-41.47664063 22.29875 -40.95328125 21.5975 -40.4140625 20.875 C-35.50646194 14.69690387 -29.14852219 10.41940184 -22.63476562 6.08935547 C-21.24762726 5.16501088 -19.87938944 4.21240107 -18.515625 3.25390625 C-12.51390927 -0.61216246 -6.99730758 -0.53278992 0 0 Z M-82 62 C-82 62.33 -82 62.66 -82 63 C-79.03 63.33 -76.06 63.66 -73 64 C-72.34 62.68 -71.68 61.36 -71 60 C-75.08378077 60 -78.12315913 60.80712589 -82 62 Z M-89 61 C-89.66 62.65 -90.32 64.3 -91 66 C-88.03 65.34 -85.06 64.68 -82 64 C-82 63.67 -82 63.34 -82 63 C-82.78375 63.04125 -83.5675 63.0825 -84.375 63.125 C-87 63 -87 63 -89 61 Z M-107 78 C-109.37015245 80.65484449 -109.37015245 80.65484449 -110 84 C-108.35 83.67 -106.7 83.34 -105 83 C-105.33 81.35 -105.66 79.7 -106 78 C-106.33 78 -106.66 78 -107 78 Z M-100 80 C-100 80.33 -100 80.66 -100 81 C-99.22914063 80.98839844 -98.45828125 80.97679687 -97.6640625 80.96484375 C-96.66117187 80.95582031 -95.65828125 80.94679688 -94.625 80.9375 C-93.62726563 80.92589844 -92.62953125 80.91429687 -91.6015625 80.90234375 C-89 81 -89 81 -87 82 C-84.99199544 81.71887936 -82.98985949 81.38932033 -81 81 C-83.46524407 78.6333657 -84.79863711 78.01936182 -88.25 77.6875 C-92.39700527 78.03308377 -95.9991056 78.87694192 -100 80 Z " fill="#FFFFFF" transform="translate(483,312)"/>
<path d="M0 0 C7.55101981 0.47193874 12.97755273 3.59873478 18.1875 9.0625 C21.43560664 13.04121057 23.02768194 17.62433514 24.7265625 22.42578125 C26.22322509 25.45124336 26.96981279 25.737422 30 27 C31.89160368 28.43673124 33.76489584 29.89771411 35.625 31.375 C41.80381086 36.1472909 47.89832491 38.95593725 55.4375 40.875 C58 42 58 42 59.5 45.0625 C60.70516989 48.24648155 60.70516989 48.24648155 63.75 49 C67.48697056 49 70.47443638 48.19869163 74 47 C74.19814261 40.91591528 74.19814261 40.91591528 73 35 C76.26954202 35.56371414 77.82575883 36.49962266 80 39 C81.98 38.34 83.96 37.68 86 37 C86.144375 37.763125 86.28875 38.52625 86.4375 39.3125 C88.50917105 42.8757742 90.25543204 43.2032583 94.1015625 44.3359375 C96.26812216 44.83231909 98.45535283 45.23996182 100.6484375 45.6015625 C108.87059456 46.96371626 114.73928611 48.22612378 120 55 C123.6883794 60.87835467 123.8646953 67.24221822 123 74 C121.1875 77.5 121.1875 77.5 119 80 C118.505 80.78375 118.01 81.5675 117.5 82.375 C117.005 82.91125 116.51 83.4475 116 84 C114.68 84 113.36 84 112 84 C112.06960937 83.19175781 112.13921875 82.38351562 112.2109375 81.55078125 C112.29214844 79.94783203 112.29214844 79.94783203 112.375 78.3125 C112.44460937 77.25675781 112.51421875 76.20101562 112.5859375 75.11328125 C111.91079215 71.52600893 110.69753413 70.17561383 107.77001953 68.03833008 C92.93739926 59.33720814 71.84982058 62.00338576 56 66 C49.45268782 67.91508881 43.62231658 70.53777739 37.77734375 74.046875 C36 75 36 75 34 75 C33.34322099 67.44704144 35.50387757 61.35868211 40.0234375 55.27734375 C44.3159564 50.30358892 48.23909883 47.07341622 54 44 C52.97261719 43.72027344 51.94523437 43.44054687 50.88671875 43.15234375 C42.8181775 40.85220445 36.10663162 38.36026433 29.234375 33.35546875 C26.86557784 31.65422263 26.86557784 31.65422263 23 32 C21.1484375 29.8828125 21.1484375 29.8828125 19.375 27.125 C16.93828683 23.3598448 16.93828683 23.3598448 14 20 C11.0574037 20.30652045 8.65457692 20.67271154 6 22 C5.81824219 21.05898438 5.63648438 20.11796875 5.44921875 19.1484375 C5.07216797 17.28058594 5.07216797 17.28058594 4.6875 15.375 C4.44386719 14.14523437 4.20023438 12.91546875 3.94921875 11.6484375 C3.024687 8.09488749 1.69555472 5.23912695 0 2 C0 1.34 0 0.68 0 0 Z M62 56 C59.76362651 56.71116072 57.53770631 57.44280059 55.3125 58.1875 C53.45044922 58.79658203 53.45044922 58.79658203 51.55078125 59.41796875 C47.78861939 61.09417948 45.6988367 62.92962172 43 66 C50.03645577 64.11380178 57.03359344 62.13072305 64 60 C63.34 58.68 62.68 57.36 62 56 Z M107 57 C106.67 58.98 106.34 60.96 106 63 C107.6396875 63.99 107.6396875 63.99 109.3125 65 C113.59963354 68.01140757 114.57441628 71.05238591 116 76 C117.63371005 73.50138463 118.00634383 72.14590814 117.875 69.125 C116.42088346 63.93172665 114.45476338 60.83928656 109.75 58.125 C108.8425 57.75375 107.935 57.3825 107 57 Z " fill="#FFFFFF" transform="translate(137,413)"/>
<path d="M0 0 C3.51800276 0.76646142 4.5786993 2.40224468 6.7421875 5.23046875 C7.42796875 6.10058594 8.11375 6.97070312 8.8203125 7.8671875 C10.48572507 10.53262584 11.11333114 12.45083227 11.4921875 15.54296875 C12.4821875 15.54296875 13.4721875 15.54296875 14.4921875 15.54296875 C16.43905108 18.94340278 16.55087227 20.3074708 15.5859375 24.1796875 C15.07561136 25.53799416 14.54316763 26.88813844 13.9921875 28.23046875 C13.71028564 28.94090332 13.42838379 29.65133789 13.13793945 30.38330078 C8.56661918 41.58934028 2.03084056 50.00431569 -6.5078125 58.54296875 C-8.8828125 58.73046875 -8.8828125 58.73046875 -11.5078125 57.54296875 C-18.31678541 48.24056914 -19.31258409 31.99958146 -19.04296875 20.81640625 C-18.16118792 15.42273955 -15.5084697 13.0097174 -11.5078125 9.54296875 C-9.96536717 7.87702269 -8.42371398 6.21034288 -6.8828125 4.54296875 C-3.30009649 0.71450687 -3.30009649 0.71450687 0 0 Z M4.4921875 9.54296875 C5.4921875 11.54296875 5.4921875 11.54296875 5.4921875 11.54296875 Z M5.4921875 11.54296875 C5.4921875 13.19296875 5.4921875 14.84296875 5.4921875 16.54296875 C3.1821875 16.21296875 0.8721875 15.88296875 -1.5078125 15.54296875 C-1.58821777 16.17388428 -1.66862305 16.8047998 -1.75146484 17.45483398 C-2.11915722 20.29802447 -2.50078913 23.13916995 -2.8828125 25.98046875 C-3.00914063 26.97369141 -3.13546875 27.96691406 -3.265625 28.99023438 C-3.39453125 29.93447266 -3.5234375 30.87871094 -3.65625 31.8515625 C-3.77145996 32.72611084 -3.88666992 33.60065918 -4.00537109 34.50170898 C-4.17117676 35.17532471 -4.33698242 35.84894043 -4.5078125 36.54296875 C-5.1678125 36.87296875 -5.8278125 37.20296875 -6.5078125 37.54296875 C-5.5178125 37.54296875 -4.5278125 37.54296875 -3.5078125 37.54296875 C1.77162199 31.15283356 5.26294072 22.45069489 7.4921875 14.54296875 C7.1621875 13.55296875 6.8321875 12.56296875 6.4921875 11.54296875 C6.1621875 11.54296875 5.8321875 11.54296875 5.4921875 11.54296875 Z M9.4921875 18.54296875 C10.4921875 21.54296875 10.4921875 21.54296875 10.4921875 21.54296875 Z M8.4921875 21.54296875 C8.1621875 23.19296875 7.8321875 24.84296875 7.4921875 26.54296875 C8.1521875 25.88296875 8.8121875 25.22296875 9.4921875 24.54296875 C9.1621875 23.55296875 8.8321875 22.56296875 8.4921875 21.54296875 Z M-12.5078125 30.54296875 C-12.07480486 37.36283904 -10.59993426 42.45939896 -7.5078125 48.54296875 C-4.5378125 46.06796875 -4.5378125 46.06796875 -1.5078125 43.54296875 C-1.8378125 42.88296875 -2.1678125 42.22296875 -2.5078125 41.54296875 C-4.1578125 42.86296875 -5.8078125 44.18296875 -7.5078125 45.54296875 C-7.70117188 44.7953125 -7.89453125 44.04765625 -8.09375 43.27734375 C-8.35414062 42.2925 -8.61453125 41.30765625 -8.8828125 40.29296875 C-9.13804688 39.3184375 -9.39328125 38.34390625 -9.65625 37.33984375 C-10.40379759 34.88459572 -11.27905067 32.7867947 -12.5078125 30.54296875 Z M2.4921875 34.54296875 C2.4921875 37.54296875 2.4921875 37.54296875 2.4921875 37.54296875 Z M0.4921875 37.54296875 C-0.1678125 38.86296875 -0.8278125 40.18296875 -1.5078125 41.54296875 C-0.5178125 40.88296875 0.4721875 40.22296875 1.4921875 39.54296875 C1.1621875 38.88296875 0.8321875 38.22296875 0.4921875 37.54296875 Z " fill="#FFFFFF" transform="translate(66.5078125,169.45703125)"/>
<path d="M0 0 C1.05102905 -0.00845947 1.05102905 -0.00845947 2.12329102 -0.01708984 C8.05677424 0.0652518 14.20982101 0.20982101 18.59765625 4.59765625 C19.18417969 5.51417969 19.77070313 6.43070312 20.375 7.375 C21.35339844 8.84839844 21.35339844 8.84839844 22.3515625 10.3515625 C23.32222656 11.81722656 23.32222656 11.81722656 24.3125 13.3125 C26.16630532 15.68164888 28.0567017 18.01443146 29.96484375 20.33984375 C31.34569563 22.36109071 31.88956208 23.91942089 32.3125 26.3125 C31.64863281 26.74820313 30.98476563 27.18390625 30.30078125 27.6328125 C24.38018709 31.50968899 24.38018709 31.50968899 19.75 36.75 C17.12644968 39.50809136 16.81376489 39.73499495 13.25 39.875 C7.16883644 39.45525639 -1.26624073 38.73375927 -5.6875 34.3125 C-3.56619325 32.19119325 0.67566576 32.4300591 3.55078125 32.0078125 C6.46768817 31.27342858 8.06265082 30.26842589 10.3125 28.3125 C9.8175 26.3325 9.8175 26.3325 9.3125 24.3125 C7.641875 24.126875 7.641875 24.126875 5.9375 23.9375 C2.3125 23.3125 2.3125 23.3125 0.3125 21.3125 C0.3125 19.9925 0.3125 18.6725 0.3125 17.3125 C-9.7739118 13.63419845 -20.08369894 13.61368534 -30.6875 13.3125 C-29.92480469 9.51220703 -29.92480469 9.51220703 -27.7890625 7.71484375 C-18.6588654 2.31449058 -10.55327976 0.08028797 0 0 Z M-8.6875 9.3125 C-6.8500556 10.53746293 -4.97987027 11.71685984 -3.0625 12.8125 C-0.6875 14.3125 -0.6875 14.3125 0.3125 16.3125 C0.9725 16.3125 1.6325 16.3125 2.3125 16.3125 C2.3125 17.3025 2.3125 18.2925 2.3125 19.3125 C6.2725 19.3125 10.2325 19.3125 14.3125 19.3125 C11.76486244 14.20957329 11.76486244 14.20957329 7.11328125 11.36328125 C1.63671886 9.73836714 -2.97682649 8.99524036 -8.6875 9.3125 Z " fill="#FFFFFF" transform="translate(361.6875,100.6875)"/>
<path d="M0 0 C1.46275935 0.17456799 2.92056353 0.39100549 4.375 0.625 C5.18710937 0.74101562 5.99921875 0.85703125 6.8359375 0.9765625 C9 2 9 2 10.19140625 4.63671875 C11.03460194 8.14392401 11.80595263 11.66060044 12.5625 15.1875 C14.30130158 22.73568224 17.28077988 29.39721103 20.82641602 36.2644043 C25.74776573 45.94727215 27.44420273 55.67215599 24.8984375 66.31640625 C23.71911061 69.8390044 22.16025263 73.1532331 20.5625 76.5 C20.24974121 77.15758301 19.93698242 77.81516602 19.61474609 78.49267578 C19.30875488 79.13575684 19.00276367 79.77883789 18.6875 80.44140625 C14.01860432 90.28715617 13.64338161 98.23540787 14 109 C13.34 109 12.68 109 12 109 C6.61734535 99.06131266 5.67721231 91.78616013 8.5 80.875 C11.19802817 70.15960848 11.08964304 58.62064795 8 48 C8.8971875 48.2784375 8.8971875 48.2784375 9.8125 48.5625 C12.16408762 49.22093687 12.16408762 49.22093687 15 48 C13.38215611 42.4802973 11.35515992 37.69274783 8.625 32.625 C5.6312132 26.93759919 3.69013493 21.21231962 2.0625 15 C1.85125488 14.19900879 1.64000977 13.39801758 1.42236328 12.57275391 C0.36308725 8.29155077 -0.23507462 4.44504743 0 0 Z " fill="#FFFFFF" transform="translate(443,159)"/>
<path d="M0 0 C3.26567748 14.63337643 2.54018868 32.95220175 -4.5625 46.3125 C-10.38170878 55.14164436 -19.19743034 60.46018318 -29 64 C-29.66 64 -30.32 64 -31 64 C-29.27502493 59.3970402 -27.0904129 55.06744176 -24.875 50.6875 C-24.50246094 49.94693359 -24.12992188 49.20636719 -23.74609375 48.44335938 C-22.83255194 46.62798783 -21.91652513 44.81386718 -21 43 C-19.35 43.33 -17.7 43.66 -16 44 C-12.5635133 38.36264929 -12.5635133 38.36264929 -11 32 C-11.763125 32.721875 -12.52625 33.44375 -13.3125 34.1875 C-18.07649941 38.17649472 -24.70611049 42 -31 42 C-30.45148386 38.20664745 -29.47892312 35.92636344 -27.1875 32.875 C-23.36103771 27.3824704 -21.17391263 21.36728337 -19.44140625 14.921875 C-18.51027593 11.96794434 -17.43251624 10.26734574 -14.80078125 8.640625 C-13.05422985 7.79476154 -11.29184669 6.98086017 -9.515625 6.19921875 C-6.96261134 4.98217652 -2.41159763 0 0 0 Z " fill="#FFFFFF" transform="translate(46,190)"/>
<path d="M0 0 C1.32 0 2.64 0 4 0 C4.13535156 0.7734375 4.27070313 1.546875 4.41015625 2.34375 C6.61527376 13.01282153 11.61720145 18.45732796 20 25 C19.360625 25.7425 18.72125 26.485 18.0625 27.25 C15.61078062 30.33010071 15.61078062 30.33010071 15 34 C16.85432087 36.27144074 16.85432087 36.27144074 19 38 C19.721875 37.690625 20.44375 37.38125 21.1875 37.0625 C23.80307309 36.07439461 26.25118982 35.4712246 29 35 C33.64044826 39.83808234 35.46972546 44.36106665 37.3125 50.75 C37.57611328 51.61238281 37.83972656 52.47476563 38.11132812 53.36328125 C40 59.63269075 40 59.63269075 40 62 C36.52889278 60.66951868 33.18380595 59.15180665 29.83544922 57.53881836 C24.41298758 54.92802933 19.16880935 52.63902765 13.375 50.9375 C7.08404665 48.91631017 4.62766921 46.12608233 1.671875 40.44921875 C-4.63839072 27.33909772 -5.74876583 15.95103744 -1 2 C-0.67 1.34 -0.34 0.68 0 0 Z " fill="#FFFFFF" transform="translate(383,31)"/>
<path d="M0 0 C0.08636719 0.99257813 0.17273438 1.98515625 0.26171875 3.0078125 C1.40834278 14.60911877 3.4148416 26.6944964 11 36 C13.30277136 37.32215648 15.47143198 38.12472645 18 39 C17.94779297 37.06447266 17.94779297 37.06447266 17.89453125 35.08984375 C17.86637658 33.37240894 17.83907823 31.65495993 17.8125 29.9375 C17.78736328 29.08994141 17.76222656 28.24238281 17.73632812 27.36914062 C17.67153028 21.7749264 18.42533413 17.98039041 21 13 C22.32 13 23.64 13 25 13 C25.12117188 14.00160156 25.24234375 15.00320312 25.3671875 16.03515625 C25.53617151 17.3776403 25.70545858 18.72008623 25.875 20.0625 C25.95363281 20.71927734 26.03226562 21.37605469 26.11328125 22.05273438 C26.54226923 25.40214052 27.12274376 28.42243563 28.0703125 31.68359375 C29.18552359 35.66180472 29.87155077 38.3856843 27.86328125 42.10546875 C27.35152344 42.79253906 26.83976562 43.47960937 26.3125 44.1875 C22.98194451 48.88666856 20.45366098 53.79954155 18 59 C14.03850909 58.49427776 10.10844173 57.88634791 6.1875 57.125 C5.43855469 56.98320313 4.68960937 56.84140625 3.91796875 56.6953125 C2 56 2 56 0 53 C0 52.01 0 51.02 0 50 C2.64 50 5.28 50 8 50 C8.04254356 48.00045254 8.04080783 45.99958364 8 44 C6.90298816 42.68348662 6.90298816 42.68348662 4.1875 42.8125 C1.07103388 42.99582154 -0.33691344 43.53847961 -3 45 C-3.65003625 42.79290017 -4.29484745 40.58426108 -4.9375 38.375 C-5.29714844 37.14523438 -5.65679687 35.91546875 -6.02734375 34.6484375 C-8.81956983 24.17478624 -10.0718941 11.25859383 -4.5625 1.4375 C-3 0 -3 0 0 0 Z " fill="#FFFFFF" transform="translate(427,48)"/>
<path d="M0 0 C1.16402344 0.10054688 1.16402344 0.10054688 2.3515625 0.203125 C4.375 0.75 4.375 0.75 6.375 3.75 C5.50617188 3.83636719 4.63734375 3.92273438 3.7421875 4.01171875 C-5.60947753 5.06798019 -5.60947753 5.06798019 -12.625 10.75 C-16.09845233 16.53908721 -16.34901643 22.09461818 -15.625 28.75 C-14.84560204 31.85415393 -13.85071554 34.79515004 -12.625 37.75 C-11.635 37.75 -10.645 37.75 -9.625 37.75 C-8.965 36.43 -8.305 35.11 -7.625 33.75 C-6.965 33.75 -6.305 33.75 -5.625 33.75 C-5.39425781 34.49765625 -5.16351563 35.2453125 -4.92578125 36.015625 C-2.5243713 43.6525067 -2.5243713 43.6525067 3.375 48.75 C4.1175 49.183125 4.86 49.61625 5.625 50.0625 C10.77924329 51.35106082 15.64284507 50.671359 20.3125 48.1875 C20.993125 47.713125 21.67375 47.23875 22.375 46.75 C23.035 46.75 23.695 46.75 24.375 46.75 C23.7789512 53.00851235 21.45919669 56.86913957 16.8125 61.0625 C11.74695718 64.56941426 6.32343937 64.42826242 0.375 63.75 C-8.57543963 60.86150791 -14.97714805 55.18163396 -19.4375 47 C-24.16158419 36.77484408 -25.42405268 24.47459848 -21.625 13.75 C-18.44298607 7.42663685 -15.09725583 3.62655815 -8.625 0.75 C-5.60190747 -0.20854154 -3.15132282 -0.31618624 0 0 Z " fill="#FFFFFF" transform="translate(108.625,115.25)"/>
<path d="M0 0 C0.33 0 0.66 0 1 0 C0.67 2.31 0.34 4.62 0 7 C0.66 7 1.32 7 2 7 C1.61355184 12.32352055 -0.31241042 15.1164382 -3.9375 18.8125 C-4.42968018 19.32949463 -4.92186035 19.84648926 -5.42895508 20.37915039 C-10.05624711 25.18136489 -14.85806022 29.74967604 -20 34 C-20.64195313 34.56074219 -21.28390625 35.12148437 -21.9453125 35.69921875 C-26.31209279 39.03368487 -29.23806143 39.14418164 -34.6875 38.5625 C-35.76386719 38.37816406 -36.84023438 38.19382813 -37.94921875 38.00390625 C-41.10147756 37.73662271 -41.10147756 37.73662271 -43.7578125 39.6640625 C-46.04266396 42.04444782 -47.07753336 43.73464489 -48.1875 46.8125 C-48.50589844 47.68261719 -48.82429688 48.55273438 -49.15234375 49.44921875 C-50.20414919 52.61432914 -51.15807042 55.77260329 -52 59 C-54.51794191 55.22308713 -54.58205428 51.3654071 -54 47 C-52.24165311 40.04653729 -49.7915411 33.49007119 -44 29 C-38.54062042 25.87067821 -32.87220861 23.26314993 -27.11328125 20.73046875 C-21.66706014 18.23671666 -18.56983101 15.6744296 -14.859375 10.9921875 C-12.07958104 8.01383683 -8.79145335 6.25189009 -5.234375 4.32421875 C-3.11973044 3.07095913 -1.68053973 1.7687162 0 0 Z " fill="#FFFFFF" transform="translate(62,156)"/>
<path d="M0 0 C0.99 0.33 1.98 0.66 3 1 C4.10546875 3.3359375 4.10546875 3.3359375 5.1875 6.375 C8.50324189 14.72391894 13.05918944 21.86934797 20.1875 27.4375 C25.25828271 31.55378243 26.81020106 37.02782108 29 43 C29.598125 44.175625 30.19625 45.35125 30.8125 46.5625 C32 49 32 49 32 52 C7.88216546 46.64380598 7.88216546 46.64380598 3.0625 39.1875 C-2.38457671 27.47919276 -2.69299653 14.5720668 -1 2 C-0.67 1.34 -0.34 0.68 0 0 Z " fill="#FFFFFF" transform="translate(353,26)"/>
<path d="M0 0 C0.99 0.33 1.98 0.66 3 1 C6.00326041 8.78752408 4.214016 18.58831898 1 26 C-3.22272243 33.96480978 -8.77780486 40.53233233 -15 47 C-16.11181641 48.17175781 -16.11181641 48.17175781 -17.24609375 49.3671875 C-22.56929229 54.85643076 -22.56929229 54.85643076 -26 56 C-27 53 -27 53 -25.9609375 50.22265625 C-25.43757813 49.17980469 -24.91421875 48.13695312 -24.375 47.0625 C-23.86710937 46.02222656 -23.35921875 44.98195313 -22.8359375 43.91015625 C-20.88414286 40.81635411 -18.94373243 39.12920453 -16 37 C-15.34 36.34 -14.68 35.68 -14 35 C-14.50789063 35.27714844 -15.01578125 35.55429687 -15.5390625 35.83984375 C-19.7077298 38.0334683 -23.24131553 39.52413155 -28 40 C-27.35376151 36.32074886 -25.73281051 33.78393368 -23.6875 30.6875 C-21.65702512 27.5924644 -19.72624902 24.55501495 -18.0625 21.25 C-15.80784955 17.69721748 -13.38733976 15.68424337 -10.171875 13.04296875 C-6.12316409 9.23455903 -3.11371012 4.57947259 0 0 Z " fill="#FFFFFF" transform="translate(51,229)"/>
<path d="M0 0 C3.33331289 1.1111043 3.79769936 1.76284088 5.875 4.4375 C9.11249291 8.26991683 12.65528575 11.2857466 16.625 14.3125 C17.17526855 14.73265381 17.72553711 15.15280762 18.29248047 15.58569336 C20.73024485 17.41236505 23.07718463 19.03923911 25.796875 20.421875 C28.83061962 22.59498285 28.96625644 24.31441042 29.625 27.9375 C29.85058594 29.08476563 30.07617188 30.23203125 30.30859375 31.4140625 C30.53675781 32.59742188 30.76492188 33.78078125 31 35 C31.54720733 37.27456686 32.10870211 39.54576594 32.6875 41.8125 C32.93886719 42.80894531 33.19023437 43.80539063 33.44921875 44.83203125 C33.63097656 45.54746094 33.81273437 46.26289062 34 47 C26.09723737 45.75295856 17.31984931 41.90245412 12.43359375 35.36328125 C5.9121847 24.61272954 -0.37191374 12.90075793 0 0 Z " fill="#FFFFFF" transform="translate(320,19)"/>
<path d="M0 0 C2.5 1 2.5 1 4 2 C4 2.33 4 2.66 4 3 C3.07767578 3.20302734 3.07767578 3.20302734 2.13671875 3.41015625 C-2.12612274 4.54555422 -4.43107533 5.2069535 -7.0625 8.875 C-8.7948017 14.28117646 -9.56790706 22.86418588 -7 28 C-6.01 28.33 -5.02 28.66 -4 29 C-3.67 27.68 -3.34 26.36 -3 25 C-0.77282032 27.22717968 -0.12090609 28.8920142 1 31.8125 C1.33 32.66457031 1.66 33.51664063 2 34.39453125 C2.33 35.25433594 2.66 36.11414063 3 37 C3.66427992 38.66761938 4.33024138 40.33457344 5 42 C1.17902761 41.46930939 -1.06171403 40.50298434 -4 38 C-2.77462556 46.1837507 2.59589921 52.96012264 8 59 C7.67 59.66 7.34 60.32 7 61 C-2.15267114 58.07893474 -8.05271244 51.37387479 -12.4375 43 C-18.06317185 30.70455654 -18.46462605 18.86078846 -14 6 C-9.92963737 0.198932 -6.98147318 -0.59328725 0 0 Z " fill="#FFFFFF" transform="translate(95,190)"/>
<path d="M0 0 C3.84568949 0.56195815 6.29560498 1.64514378 9.5 3.8125 C14.49189311 6.9605407 19.40606575 8.46460147 25.1171875 9.84765625 C28.6866038 11.27445545 29.84575087 12.85217684 32 16 C32.64839844 16.8971875 33.29679687 17.794375 33.96484375 18.71875 C34.94130859 20.09546875 34.94130859 20.09546875 35.9375 21.5 C38.13480262 24.55568813 40.2477781 27.42812312 43 30 C45 32 45 32 45 35 C41.99506799 34.4577794 38.99776214 33.89206735 36 33.3125 C35.16082031 33.16361328 34.32164062 33.01472656 33.45703125 32.86132812 C20.95876851 30.39074131 12.21327763 21.97208236 4.7421875 11.98046875 C0 4.80959008 0 4.80959008 0 0 Z " fill="#FFFFFF" transform="translate(265,15)"/>
<path d="M0 0 C4.94516478 2.65869074 8.03324344 7.23487771 10.81640625 11.9765625 C10.81640625 12.9665625 10.81640625 13.9565625 10.81640625 14.9765625 C11.47640625 14.9765625 12.13640625 14.9765625 12.81640625 14.9765625 C13.10515625 15.7396875 13.39390625 16.5028125 13.69140625 17.2890625 C14.77909638 20.12685558 14.77909638 20.12685558 16.81640625 22.9765625 C16.81640625 23.9665625 16.81640625 24.9565625 16.81640625 25.9765625 C7.78213532 25.18392457 -5.80003125 23.98509074 -12.12890625 16.75390625 C-13.08814175 14.49177213 -13.67562215 12.3750719 -14.18359375 9.9765625 C-16.01817403 6.27888637 -16.01817403 6.27888637 -19.18359375 3.9765625 C-19.18359375 2.6565625 -19.18359375 1.3365625 -19.18359375 -0.0234375 C-12.73893413 -3.24576731 -6.46249946 -2.70640877 0 0 Z " fill="#FFFFFF" transform="translate(277.18359375,460.0234375)"/>
<path d="M0 0 C0.66 0.33 1.32 0.66 2 1 C2.59765625 3.9140625 2.59765625 3.9140625 3.0625 7.625 C3.21847656 8.83414063 3.37445313 10.04328125 3.53515625 11.2890625 C3.68855469 12.51367188 3.84195313 13.73828125 4 15 C4.22558594 16.19367188 4.45117188 17.38734375 4.68359375 18.6171875 C5.03088883 22.33024355 4.50438339 24.13493188 3 27.5 C0.63376503 33.45217868 1.2086357 37.20384613 2.9375 43.3125 C3.00839978 47.4955868 2.35585018 48.29264376 0.0625 51.625 C-2.80929377 55.90338663 -3.2513841 58.44248135 -2.875 63.5625 C-2.65627754 67.43571025 -2.56577948 69.32655613 -4.6875 72.6171875 C-6.12060915 74.13730685 -7.58633362 75.62746847 -9.0859375 77.08203125 C-11.5543967 79.55552813 -12.40367908 81.57115468 -13 85 C-12.896875 86.11375 -12.79375 87.2275 -12.6875 88.375 C-13.15500292 93.79803383 -16.30314913 96.23647246 -20 100 C-21.11600322 101.23944376 -22.22110551 102.48883304 -23.3125 103.75 C-24.01826172 104.54664063 -24.01826172 104.54664063 -24.73828125 105.359375 C-27.30660624 108.69899263 -28.11708372 111.41196099 -28.5 115.5625 C-29.75798584 122.59673747 -34.81775017 127.395501 -40 132 C-40.66 132 -41.32 132 -42 132 C-42.39156373 127.64673268 -41.49865128 125.82239425 -38.8125 122.4375 C-36.04851426 118.72460099 -34.21777277 115.34240156 -32.625 111 C-30.43181546 105.31965204 -27.34849637 101.55283508 -23.0859375 97.25390625 C-19.3819215 93.25162679 -17.74023486 89.68880454 -16.6875 84.375 C-15.66514481 79.94479418 -14.31718971 76.47025449 -12 72.5625 C-9.02077955 67.47943499 -7.78775355 62.66587219 -6.65625 56.9140625 C-6 54 -6 54 -4.3125 50.625 C-2.48948709 45.59001196 -2.87914657 40.89932832 -3.08984375 35.62109375 C-3 32 -3 32 -2.0078125 29.265625 C-0.47944123 24.31322818 -0.83153647 19.45975855 -0.9375 14.3125 C-0.9719177 12.24616336 -1.00206178 10.17974985 -1.02734375 8.11328125 C-1.05429321 6.74876831 -1.05429321 6.74876831 -1.08178711 5.35668945 C-1 3 -1 3 0 0 Z " fill="#FFFFFF" transform="translate(439,232)"/>
<path d="M0 0 C0.66 0 1.32 0 2 0 C5.56724383 7.13448766 2.63356141 17.27146792 0.38671875 24.4140625 C-4.23479851 36.36491559 -11.52803029 48.6713302 -23 55 C-21.63118689 48.38406996 -19.84380419 41.96825324 -17.921875 35.4921875 C-17.09984735 32.3782353 -16.62951231 29.43971059 -16.25 26.25 C-15.34566398 20.77596605 -12.7840513 17.66722206 -9.16796875 13.5703125 C-6.14920555 9.99131037 -3.83648264 6.06962899 -1.4453125 2.0546875 C-0.96835937 1.37664062 -0.49140625 0.69859375 0 0 Z " fill="#FFFFFF" transform="translate(54,256)"/>
<path d="M0 0 C0.33 0.99 0.66 1.98 1 3 C-3.96793138 5.48396569 -9.59439576 3.86878027 -14.6484375 2.44921875 C-20.49878058 1.3316283 -27.33243205 1.11081068 -33 3 C-34.65721933 3.03616842 -36.31604022 3.01454111 -37.97265625 2.95703125 C-38.95556641 2.93576172 -39.93847656 2.91449219 -40.95117188 2.89257812 C-42.99840403 2.83988728 -45.04536686 2.77511177 -47.09179688 2.69726562 C-53.39965793 2.5866014 -58.01791225 3.35928217 -63.70727539 6.14379883 C-66.43501017 7.16245135 -68.4894566 7.09229149 -71.375 6.875 C-77.24295458 6.61915388 -80.90634169 8.67968797 -85.94921875 11.4921875 C-89.08061986 13.03984541 -91.8352308 13.75884147 -95.25 14.4375 C-100.56366821 15.5953421 -103.12892615 17.53206548 -106.94140625 21.2890625 C-111.83907708 25.35961245 -118.4328059 26.71378611 -124.5625 27.9375 C-125.696875 28.288125 -126.83125 28.63875 -128 29 C-129.13545562 31.29534258 -129.13545562 31.29534258 -130 34 C-133.44872291 37.69376374 -137.115964 40.51998909 -142 42 C-141.44222328 38.52691031 -140.48381581 37.26527642 -137.6875 35.1875 C-134.96921782 33.04120105 -133.6400402 31.51907249 -132.375 28.3125 C-130.96529697 25.51761052 -130.18672881 25.06343664 -127.1484375 24.03125 C-124.86121311 23.54751519 -122.5678028 23.09224777 -120.26953125 22.6640625 C-116.13768948 21.82485927 -112.31460619 20.66860406 -109 18 C-108.45472656 17.00871094 -107.90945312 16.01742187 -107.34765625 14.99609375 C-104.07591987 10.82068309 -101.06577704 10.64376808 -96 9.875 C-89.88608028 9.13058775 -89.88608028 9.13058775 -84.921875 5.9140625 C-82.07027293 3.07405231 -79.05078584 3.49297533 -75.25 3.5 C-68.76574198 3.32429469 -62.85124244 2.85124244 -58 -2 C-54.7939688 -2.12330889 -51.81176266 -2.17239776 -48.6640625 -1.50390625 C-42.43762604 -0.32617853 -35.56472573 -0.22142255 -29.5 -2.0625 C-20.21278725 -4.55014627 -9.31981755 -1.57109854 0 0 Z " fill="#FFFFFF" transform="translate(288,66)"/>
<path d="M0 0 C0.61230469 0.34417969 1.22460938 0.68835937 1.85546875 1.04296875 C8.76448561 4.3902683 16.52393206 5.09095917 24.04296875 6.23046875 C24.04296875 6.89046875 24.04296875 7.55046875 24.04296875 8.23046875 C11.54250517 15.36955969 -1.30123673 17.9920459 -15.3828125 14.94140625 C-19.72392478 13.74249512 -23.83724251 12.03616339 -27.95703125 10.23046875 C-27.95703125 8.91046875 -27.95703125 7.59046875 -27.95703125 6.23046875 C-24.75424232 5.04817696 -21.54402305 3.88750057 -18.33203125 2.73046875 C-17.42839844 2.39660156 -16.52476562 2.06273437 -15.59375 1.71875 C-5.13875441 -2.02062798 -5.13875441 -2.02062798 0 0 Z " fill="#FFFFFF" transform="translate(157.95703125,51.76953125)"/>
<path d="M0 0 C5.63698057 0.6734111 10.96466066 1.94648817 16.4375 3.4375 C18.06107184 3.87416697 19.68476865 4.31036953 21.30859375 4.74609375 C22.09427734 4.96209229 22.87996094 5.17809082 23.68945312 5.40063477 C25.18830428 5.78944284 26.69811872 6.13893178 28.21679688 6.44116211 C33.11697003 7.43915489 35.47265929 8.83267138 38.625 12.6875 C39.36878906 13.57566406 40.11257813 14.46382812 40.87890625 15.37890625 C41.57886719 16.24386719 42.27882813 17.10882813 43 18 C44.1837618 19.37821959 45.37069825 20.75372693 46.5625 22.125 C47.7690625 23.548125 47.7690625 23.548125 49 25 C31.0794891 25.42499235 20.61265446 22.70254582 7.20703125 10.18359375 C4.56495261 7.56957258 2.19520873 5.0001186 0 2 C0 1.34 0 0.68 0 0 Z " fill="#FFFFFF" transform="translate(234,19)"/>
<path d="M0 0 C2 1 2 1 2.81640625 3.01171875 C7.4433021 19.60555988 6.96108774 35.52666924 -1 51 C-2.47265625 53.33984375 -2.47265625 53.33984375 -4 55 C-4.99 55 -5.98 55 -7 55 C-7.07347656 53.42412109 -7.07347656 53.42412109 -7.1484375 51.81640625 C-7.53878317 42.80517722 -7.53878317 42.80517722 -9.0625 33.9375 C-11.02055546 25.86241858 -9.45190198 21.38247954 -5.6015625 14.15625 C-3.28492876 9.59078643 -1.62227238 4.8477316 0 0 Z " fill="#FFFFFF" transform="translate(62,302)"/>
<path d="M0 0 C0.99 0.33 1.98 0.66 3 1 C3.46231827 2.98136403 3.92086948 4.96380485 4.34765625 6.953125 C5.35742111 10.12148898 7.59797391 11.76555713 10 14 C13.87289441 19.06275956 16.05926751 24.44905867 18.0078125 30.484375 C19.02084096 33.05284086 20.32733027 34.82647436 22 37 C22 37.66 22 38.32 22 39 C14.63183962 38.16425959 9.91463026 35.58641425 5 30 C2.63773512 26.49078336 2.79181266 23.409367 2.875 19.25 C2.89304687 18.07953125 2.91109375 16.9090625 2.9296875 15.703125 C2.95289062 14.81109375 2.97609375 13.9190625 3 13 C2.80889648 13.62567871 2.61779297 14.25135742 2.42089844 14.89599609 C1.54635372 17.72747933 0.64853211 20.55104195 -0.25 23.375 C-0.55035156 24.35984375 -0.85070312 25.3446875 -1.16015625 26.359375 C-1.46308594 27.30039062 -1.76601562 28.24140625 -2.078125 29.2109375 C-2.48659668 30.51490479 -2.48659668 30.51490479 -2.90332031 31.84521484 C-4.217655 34.42765429 -5.33047514 35.00499528 -8 36 C-10.27396937 30.75092069 -11.48443419 25.74639177 -11 20 C-9.78338035 17.99818611 -8.39750476 16.64640055 -6.703125 15.03515625 C-3.16139694 10.80295369 -1.75582005 5.16646165 0 0 Z " fill="#FFFFFF" transform="translate(71,251)"/>
<path d="M0 0 C0.99 0 1.98 0 3 0 C4.12564946 1.15976005 5.24829826 2.32258607 6.35546875 3.5 C10.67241434 7.43754657 16.09020519 10.36132812 21.59765625 12.203125 C26.12011534 14.59156493 26.89771314 16.97682547 28.5625 21.625 C30.82635407 27.38012229 33.23159811 32.39156089 36.93359375 37.3984375 C38 39 38 39 38 41 C26.73006046 39.87300605 19.77621017 33.49685825 12.56640625 25.19921875 C7.23983545 18.41749707 0 8.97799895 0 0 Z " fill="#FFFFFF" transform="translate(293,15)"/>
<path d="M0 0 C0.66 0 1.32 0 2 0 C10.37944906 15.33597281 12.50612413 30.40301714 7.94921875 47.44921875 C6.91346848 50.23253121 5.70467287 52.56788318 4 55 C3.34 55 2.68 55 2 55 C1.81824219 53.7934375 1.63648437 52.586875 1.44921875 51.34375 C1.19575578 49.72909702 0.94182447 48.11451751 0.6875 46.5 C0.56955078 45.70851563 0.45160156 44.91703125 0.33007812 44.1015625 C-0.72075648 37.5271101 -2.2581717 31.61274245 -6 26 C-5.8984375 24.08203125 -5.8984375 24.08203125 -5.375 21.8125 C-5.1790625 20.94496094 -4.983125 20.07742188 -4.78125 19.18359375 C-4.5234375 18.13300781 -4.265625 17.08242188 -4 16 C-3.83628906 15.32984863 -3.67257813 14.65969727 -3.50390625 13.96923828 C-2.36135079 9.30623595 -1.18882114 4.651407 0 0 Z " fill="#FFFFFF" transform="translate(71,328)"/>
<path d="M0 0 C4.52100352 2.90886273 9.09577526 5.14802366 14.0625 7.1875 C8.15064747 13.09935253 -3.06892111 13.17776166 -10.9375 13.1875 C-18.8752433 12.5300062 -26.82241406 9.67265111 -33.9375 6.1875 C-34.5975 5.1975 -35.2575 4.2075 -35.9375 3.1875 C-34.9375 1.1875 -34.9375 1.1875 -32.93139648 0.4855957 C-30.08214324 -0.19044884 -27.23187264 -0.85679134 -24.375 -1.5 C-23.39724609 -1.73783203 -22.41949219 -1.97566406 -21.41210938 -2.22070312 C-13.50417612 -4.02686872 -7.05345858 -4.76259169 0 0 Z " fill="#FFFFFF" transform="translate(188.9375,42.8125)"/>
<path d="M0 0 C0.66 0 1.32 0 2 0 C9.07220506 8.95139098 12.53288904 20.70810021 13 32 C13.03996094 32.79921875 13.07992187 33.5984375 13.12109375 34.421875 C13.31847765 41.8992416 12.61653619 49.34435777 9 56 C8.34 56 7.68 56 7 56 C6.86424561 55.45061768 6.72849121 54.90123535 6.58862305 54.33520508 C5.96336586 51.82544441 5.32556031 49.31903489 4.6875 46.8125 C4.47416016 45.94818359 4.26082031 45.08386719 4.04101562 44.19335938 C1.92280963 35.89888184 1.92280963 35.89888184 -4 30 C-3.59262393 27.35205556 -3.18383825 24.72329804 -2.5234375 22.125 C-0.67348588 14.83563841 -0.37466898 7.48351989 0 0 Z " fill="#FFFFFF" transform="translate(85,349)"/>
<path d="M0 0 C1.00417969 0.13277344 2.00835937 0.26554687 3.04296875 0.40234375 C4.42443463 0.58107376 5.80594864 0.75943199 7.1875 0.9375 C7.9091333 1.03248779 8.6307666 1.12747559 9.37426758 1.2253418 C13.98596864 1.81226712 18.53866826 2.13123821 23.1875 2.3125 C28.62515402 2.7123275 28.62515402 2.7123275 31.6875 5.0625 C32.450625 6.031875 33.21375 7.00125 34 8 C35.63874167 9.40816495 37.30871768 10.78039341 39 12.125 C39.825 12.78757812 40.65 13.45015625 41.5 14.1328125 C43.91894297 15.93946053 46.38441467 17.49603843 49 19 C48.67 19.66 48.34 20.32 48 21 C25.14478674 22.02510962 25.14478674 22.02510962 17 16 C16.08089844 15.37222656 15.16179687 14.74445312 14.21484375 14.09765625 C8.8806829 10.35728236 3.8669563 6.32618338 -1 2 C-0.67 1.34 -0.34 0.68 0 0 Z " fill="#FFFFFF" transform="translate(205,23)"/>
<path d="M0 0 C0.66 0 1.32 0 2 0 C6.24895692 12.74687075 1.60447499 27.92100416 -3.875 39.5 C-6.42606459 44.2792096 -9.12254794 48.20871355 -13 52 C-13.99 52 -14.98 52 -16 52 C-15.8246875 51.05511719 -15.649375 50.11023438 -15.46875 49.13671875 C-15.02585938 46.07569866 -15.02612057 43.22961204 -15.21875 40.14453125 C-16.15024911 24.08890105 -16.15024911 24.08890105 -10.875 17.4375 C-10.05902344 16.54417969 -9.24304687 15.65085937 -8.40234375 14.73046875 C-4.57009869 10.37479509 -2.3741285 5.25101363 0 0 Z " fill="#FFFFFF" transform="translate(57,280)"/>
<path d="M0 0 C0.58974609 0.38607422 1.17949219 0.77214844 1.78710938 1.16992188 C2.38201172 1.56888672 2.97691406 1.96785156 3.58984375 2.37890625 C7.52634846 4.97640613 11.46028167 7.55037354 15.52734375 9.94140625 C11.85254935 13.61620065 6.87824821 13.12401251 1.90234375 13.19140625 C-11.21180336 13.05480055 -24.19596429 8.21985255 -34.47265625 -0.05859375 C-34.47265625 -1.04859375 -34.47265625 -2.03859375 -34.47265625 -3.05859375 C-30.43181004 -3.28552696 -26.39007539 -3.48683884 -22.34765625 -3.68359375 C-21.20554688 -3.74804688 -20.0634375 -3.8125 -18.88671875 -3.87890625 C-17.778125 -3.93046875 -16.66953125 -3.98203125 -15.52734375 -4.03515625 C-14.00343018 -4.1137085 -14.00343018 -4.1137085 -12.44873047 -4.19384766 C-7.80043522 -3.98259617 -3.8619727 -2.56454014 0 0 Z " fill="#FFFFFF" transform="translate(213.47265625,35.05859375)"/>
<path d="M0 0 C0.495 1.485 0.495 1.485 1 3 C1.721875 3.061875 2.44375 3.12375 3.1875 3.1875 C6.88399074 4.2553751 8.53138868 6.10819816 11 9 C11 9.66 11 10.32 11 11 C9.75863281 11.06058594 8.51726562 11.12117188 7.23828125 11.18359375 C5.59634423 11.26803623 3.95441768 11.35268236 2.3125 11.4375 C1.49587891 11.47681641 0.67925781 11.51613281 -0.16210938 11.55664062 C-4.20421663 11.76938311 -8.04432087 12.08433354 -12 13 C-18.18628722 13.75750456 -22.53110693 11.73006763 -28.03515625 9.19140625 C-31.04590133 7.9815548 -33.79120448 7.41480715 -37 7 C-35.14924714 2.34326699 -32.3014927 1.03172185 -27.90234375 -1.01953125 C-18.97933246 -4.0338998 -9.01973664 -1.62937178 0 0 Z " fill="#FFFFFF" transform="translate(378,440)"/>
<path d="M0 0 C7.7333718 3.5747851 11.40498355 12.1159126 14.2734375 19.7734375 C15.58197382 23.78346817 16.12121439 27.1814106 16.09765625 31.421875 C16.09443359 32.44667969 16.09121094 33.47148437 16.08789062 34.52734375 C16.07951172 35.59082031 16.07113281 36.65429688 16.0625 37.75 C16.05798828 38.82894531 16.05347656 39.90789062 16.04882812 41.01953125 C16.03705727 43.67974383 16.02061399 46.33984365 16 49 C14.68 49 13.36 49 12 49 C11.64808594 47.97519531 11.29617187 46.95039063 10.93359375 45.89453125 C10.43608388 44.53341933 9.9373186 43.17276582 9.4375 41.8125 C9.20998047 41.13896484 8.98246094 40.46542969 8.74804688 39.77148438 C7.22680075 35.72141353 6.18576888 33.90868001 2.28125 31.9375 C0.43725586 30.7668457 0.43725586 30.7668457 -1 29 C-1.7530794 24.03639781 -1.33520154 19.16738907 -0.9375 14.1875 C-0.85411501 12.81334771 -0.77400162 11.43899274 -0.69726562 10.06445312 C-0.49695151 6.70624598 -0.26344313 3.35374833 0 0 Z " fill="#FFFFFF" transform="translate(100,374)"/>
<path d="M0 0 C10.19435516 4.53082452 14.963433 13.91520079 18.875 23.875 C21.23870796 30.24605392 22.1261344 35.50361967 22.0625 42.3125 C22.05347656 43.56675781 22.04445312 44.82101562 22.03515625 46.11328125 C22.02355469 47.06589844 22.01195312 48.01851563 22 49 C19 48 19 48 17.0625 44.54296875 C16.36494836 43.09594845 15.6778482 41.6438543 15 40.1875 C12.19434812 33.61827731 12.19434812 33.61827731 8 28 C4.89802603 27.19053578 4.89802603 27.19053578 2 27 C1.93941406 25.80503906 1.87882812 24.61007812 1.81640625 23.37890625 C1.20784423 11.66471039 1.20784423 11.66471039 0 0 Z " fill="#FFFFFF" transform="translate(117,392)"/>
<path d="M0 0 C10.76437702 0.93677332 17.59243441 5.47923539 25.34375 12.74609375 C32.74213153 19.52794348 40.03677979 24.71895238 49.5703125 27.984375 C52.44308345 29.38333023 52.59229802 30.39397769 53.96875 33.15234375 C56.36334647 34.28126132 56.36334647 34.28126132 59.09375 34.90234375 C60.00382812 35.1446875 60.91390625 35.38703125 61.8515625 35.63671875 C62.55023438 35.806875 63.24890625 35.97703125 63.96875 36.15234375 C63.96875 36.48234375 63.96875 36.81234375 63.96875 37.15234375 C49.72968849 37.91063697 39.01772275 35.39000949 27.96875 26.15234375 C23.82200811 22.35005965 19.89573343 18.43278802 16.46875 13.96484375 C10.86256788 7.65788886 4.02305692 4.32300803 -4.03125 2.15234375 C-2.03125 0.15234375 -2.03125 0.15234375 0 0 Z " fill="#FFFFFF" transform="translate(141.03125,407.84765625)"/>
<path d="M0 0 C1.63675409 1.14442368 3.21391336 2.37347444 4.7734375 3.62109375 C4.4434375 4.94109375 4.1134375 6.26109375 3.7734375 7.62109375 C-2.5416839 9.77092231 -8.53209678 11.111749 -14.91796875 8.53515625 C-16.6507984 7.66243564 -18.36761155 6.75679499 -20.0625 5.8125 C-23.38834705 3.98148312 -26.16168362 3.4711202 -29.89453125 3.3046875 C-30.78720703 3.26279297 -31.67988281 3.22089844 -32.59960938 3.17773438 C-33.52837891 3.13841797 -34.45714844 3.09910156 -35.4140625 3.05859375 C-36.35443359 3.01541016 -37.29480469 2.97222656 -38.26367188 2.92773438 C-40.58449104 2.8217071 -42.90541575 2.71964346 -45.2265625 2.62109375 C-34.42664917 -9.39002481 -12.76439916 -7.90497001 0 0 Z " fill="#FFFFFF" transform="translate(402.2265625,429.37890625)"/>
<path d="M0 0 C2.3125 0.125 2.3125 0.125 5 1 C7.33809249 4.99890378 8.6671563 8.98558053 9.875 13.4375 C11.8711873 20.10916781 14.19563826 24.46250494 19.421875 29.19140625 C22.49041117 32.53425096 23.9959589 35.83142445 25.8125 39.9375 C28.47564877 45.62947793 30.69527231 49.42607836 36.1796875 52.78125 C40.01743002 55.35072568 42.22315148 59.52783808 44.33984375 63.5390625 C46.23523169 66.34869638 47.7615013 67.27648592 50.75 68.8125 C54.50083925 70.90839711 57.00922003 72.89152195 59.6875 76.25 C62.82322883 80.16219502 65.08748132 81.19795613 70 82 C70 83.32 70 84.64 70 86 C67.36328125 86.88671875 67.36328125 86.88671875 64 87 C61.74752781 84.97247105 60.0475462 83.15402787 58.1875 80.8125 C53.52558937 75.18274455 53.52558937 75.18274455 47.125 71.875 C42.92733021 70.46065 41.81382358 68.46689097 39.8125 64.5625 C39.34457031 63.59441406 38.87664062 62.62632812 38.39453125 61.62890625 C35.9560188 57.03193459 32.82701648 54.72751043 27.96875 52.79296875 C24.0821249 50.44565175 23.7290065 48.61867809 22.5 44.3125 C20.29324701 37.45958016 17.61284857 32.72133674 12.62597656 27.5847168 C8.16516337 22.78038431 5.90508621 17.7869524 3.625 11.6875 C3.27050781 10.78193359 2.91601562 9.87636719 2.55078125 8.94335938 C0 2.339889 0 2.339889 0 0 Z " fill="#FFFFFF" transform="translate(90,312)"/>
<path d="M0 0 C3.5 1.5 3.5 1.5 6 3 C6 3.99 6 4.98 6 6 C7.175625 6.1546875 7.175625 6.1546875 8.375 6.3125 C11 7 11 7 13 10 C13 10.66 13 11.32 13 12 C13.825 12.825 14.65 13.65 15.5 14.5 C18 17 18 17 18 19 C14.81185409 18.88899025 11.62477124 18.75863821 8.4375 18.625 C7.54224609 18.5940625 6.64699219 18.563125 5.72460938 18.53125 C-6.81133644 17.98021941 -6.81133644 17.98021941 -11.625 13.625 C-12.40875 12.75875 -13.1925 11.8925 -14 11 C-15.64864545 9.64444707 -17.31003995 8.30368347 -19 7 C-17.54261898 6.01941648 -16.08406325 5.04057868 -14.625 4.0625 C-13.81289063 3.51722656 -13.00078125 2.97195313 -12.1640625 2.41015625 C-8.14789257 -0.20687867 -4.72954954 -0.5255055 0 0 Z " fill="#FFFFFF" transform="translate(344,449)"/>
<path d="M0 0 C2.875 1.8125 2.875 1.8125 5 4 C5 4.99 5 5.98 5 7 C6.2375 7.7115625 6.2375 7.7115625 7.5 8.4375 C8.7375 9.2109375 8.7375 9.2109375 10 10 C10 11.32 10 12.64 10 14 C10.639375 14.20625 11.27875 14.4125 11.9375 14.625 C14 16 14 16 14.75 19.125 C14.87375 20.548125 14.87375 20.548125 15 22 C10.23372541 21.17525228 5.67225913 19.81249223 1.0625 18.375 C-0.11602539 18.04048828 -0.11602539 18.04048828 -1.31835938 17.69921875 C-6.50675009 16.05803742 -9.58151539 13.94875445 -13.10375977 9.80322266 C-14 8 -14 8 -13.84741211 5.91943359 C-11.58415534 0.79303637 -5.07076282 -0.8818718 0 0 Z " fill="#FFFFFF" transform="translate(326,459)"/>
<path d="M0 0 C1.91668831 2.07063918 3.3980342 3.78192846 4.5703125 6.3515625 C4.234375 8.6171875 4.234375 8.6171875 3.5703125 10.3515625 C2.61769531 10.0628125 1.66507812 9.7740625 0.68359375 9.4765625 C-0.57066406 9.1053125 -1.82492187 8.7340625 -3.1171875 8.3515625 C-4.35855469 7.9803125 -5.59992188 7.6090625 -6.87890625 7.2265625 C-9.93837054 6.47263511 -12.31125923 6.0738546 -15.4296875 6.3515625 C-15.7596875 6.6815625 -16.0896875 7.0115625 -16.4296875 7.3515625 C-15.88699219 7.53332031 -15.34429687 7.71507813 -14.78515625 7.90234375 C-13.71201172 8.27939453 -13.71201172 8.27939453 -12.6171875 8.6640625 C-11.90949219 8.90769531 -11.20179688 9.15132812 -10.47265625 9.40234375 C-8.25367534 10.43334253 -6.97076394 11.46046239 -5.4296875 13.3515625 C-5.4296875 14.0115625 -5.4296875 14.6715625 -5.4296875 15.3515625 C-5.98841553 15.23562744 -6.54714355 15.11969238 -7.12280273 15.00024414 C-9.70341153 14.46728943 -12.28527209 13.94064934 -14.8671875 13.4140625 C-15.74568359 13.23166016 -16.62417969 13.04925781 -17.52929688 12.86132812 C-23.15581837 11.71941417 -28.7145374 10.90389135 -34.4296875 10.3515625 C-31.55158161 4.04714008 -25.31103143 1.54759206 -19.1171875 -1.0234375 C-5.02818355 -3.41140427 -5.02818355 -3.41140427 0 0 Z " fill="#FFFFFF" transform="translate(352.4296875,85.6484375)"/>
<path d="M0 0 C0.79019531 0.02707031 1.58039063 0.05414063 2.39453125 0.08203125 C3.28205078 0.13423828 3.28205078 0.13423828 4.1875 0.1875 C4.6825 2.1675 4.6825 2.1675 5.1875 4.1875 C4.38828125 4.58839844 3.5890625 4.98929687 2.765625 5.40234375 C-5.9338836 9.90525841 -14.64094784 14.85064709 -21.5234375 21.953125 C-22.8125 23.1875 -22.8125 23.1875 -24.8125 23.1875 C-25.0703125 23.74308594 -25.328125 24.29867188 -25.59375 24.87109375 C-26.97583825 27.49794738 -28.59129062 29.83228428 -30.3125 32.25 C-32.17831223 34.87873969 -34.02417996 37.50501993 -35.8125 40.1875 C-36.8025 39.8575 -37.7925 39.5275 -38.8125 39.1875 C-32.62069417 25.58914714 -17.73395971 -0.7940579 0 0 Z " fill="#FFFFFF" transform="translate(483.8125,282.8125)"/>
<path d="M0 0 C-1.23203569 3.69610708 -2.09433111 3.84128119 -5.4375 5.625 C-15.5005125 11.44717152 -22.9700983 19.51784705 -29.41015625 29.09765625 C-33.27704698 34.68795232 -37.95795999 38.80948382 -44 42 C-45.32 42 -46.64 42 -48 42 C-48 41.34 -48 40.68 -48 40 C-46.171875 38.2734375 -46.171875 38.2734375 -43.75 36.375 C-42.96109375 35.74335938 -42.1721875 35.11171875 -41.359375 34.4609375 C-39 33 -39 33 -35 33 C-34.4740625 31.1128125 -34.4740625 31.1128125 -33.9375 29.1875 C-29.87582166 17.22707393 -20.7517957 5.5038987 -9.6875 -0.8125 C-5.52792288 -2.15202484 -3.8587368 -1.9293684 0 0 Z " fill="#FFFFFF" transform="translate(490,256)"/>
<path d="M0 0 C4.00124311 0.11058712 7.99795779 0.05914348 12 0 C11.63530692 2.67441588 11.23653696 3.78364891 9.21484375 5.6328125 C1.88140273 10.43791451 -5.01171089 13.1129964 -14 12 C-18.66613721 10.87395697 -23.59587398 9.5521315 -27 6 C-27 5.01 -27 4.02 -27 3 C-26.34 3.165 -25.68 3.33 -25 3.5 C-18.35144374 4.7959206 -18.35144374 4.7959206 -12.17578125 2.84765625 C-11.60214844 2.38230469 -11.02851563 1.91695312 -10.4375 1.4375 C-6.69456978 -1.5501304 -4.72216428 -1.00636288 0 0 Z " fill="#FFFFFF" transform="translate(33,166)"/>
<path d="M0 0 C16.38430584 -0.30784708 16.38430584 -0.30784708 21 2 C21.4125 2.886875 21.825 3.77375 22.25 4.6875 C23.81360664 7.64718399 24.86324808 8.95371874 27.25 11.125 C28.1575 12.07375 29.065 13.0225 30 14 C29.671875 16.1796875 29.671875 16.1796875 29 18 C27.4453125 18.74609375 27.4453125 18.74609375 25 19 C22.46818071 17.78770535 20.23253644 16.55382152 17.875 15.0625 C17.2142749 14.65443115 16.5535498 14.2463623 15.87280273 13.82592773 C10.29883615 10.32145961 4.71303994 6.62432389 0 2 C0 1.34 0 0.68 0 0 Z " fill="#FFFFFF" transform="translate(268,47)"/>
<path d="M0 0 C3.875 0.875 3.875 0.875 5 2 C5.10214395 4.94715329 5.14064499 7.86537551 5.125 10.8125 C5.12306641 11.66948486 5.12113281 12.52646973 5.11914062 13.40942383 C5.07472412 19.97504676 4.72966718 26.47208466 4 33 C2.515 33.495 2.515 33.495 1 34 C-0.36878548 31.25643874 -1.72013177 28.50644895 -3.0625 25.75 C-3.45244141 24.97269531 -3.84238281 24.19539063 -4.24414062 23.39453125 C-4.60830078 22.64042969 -4.97246094 21.88632812 -5.34765625 21.109375 C-5.68804932 20.41811523 -6.02844238 19.72685547 -6.37915039 19.01464844 C-7.13027309 16.5772656 -6.86773309 15.37174229 -6 13 C-5.319375 11.88625 -5.319375 11.88625 -4.625 10.75 C-2.5766051 7.28348555 -1.34976806 3.7922055 0 0 Z " fill="#FFFFFF" transform="translate(78,303)"/>
<path d="M0 0 C2 2.5 2 2.5 2 4.5 C0.69289063 4.2834375 0.69289063 4.2834375 -0.640625 4.0625 C-13.96833074 1.98545495 -25.68589046 2.52474706 -39 4.5 C-40.6450844 4.71416692 -42.29076785 4.92389466 -43.9375 5.125 C-44.948125 5.24875 -45.95875 5.3725 -47 5.5 C-42.00378312 -0.70220026 -35.21361979 -2.56364005 -27.625 -4.25 C-6.82165605 -5.68471338 -6.82165605 -5.68471338 0 0 Z " fill="#FFFFFF" transform="translate(425,410.5)"/>
<path d="M0 0 C5.85272256 0.45020943 10.08220119 3.03839227 15 6 C14.71125 6.94875 14.4225 7.8975 14.125 8.875 C13.10685999 15.9733001 19.4009733 22.26622892 23.375 27.625 C24.24504926 28.75383315 25.11808832 29.88040999 26 31 C18.57045153 30.25812034 14.88345841 26.37326637 10 21 C8.19932869 18.69431129 6.54434767 16.31903978 4.9375 13.875 C4.55553467 13.30177002 4.17356934 12.72854004 3.7800293 12.13793945 C1.28194945 8.13173622 0.38700361 4.6797667 0 0 Z " fill="#FFFFFF" transform="translate(343,66)"/>
<path d="M0 0 C0.33 0 0.66 0 1 0 C2.12600168 11.03481644 -3.07363041 21.72524478 -8.0625 31.3125 C-8.55459961 32.27265015 -8.55459961 32.27265015 -9.05664062 33.25219727 C-10.89389644 36.62920915 -12.27006498 38.76222646 -16 40 C-17 39 -17 39 -17.09765625 35.62109375 C-17.09098369 34.22652923 -17.07902532 32.83198257 -17.0625 31.4375 C-17.05798828 30.72658203 -17.05347656 30.01566406 -17.04882812 29.28320312 C-17.03700864 27.52209987 -17.01907263 25.76103964 -17 24 C-15.88818359 23.70996094 -15.88818359 23.70996094 -14.75390625 23.4140625 C-11.09684252 21.53625105 -9.77501931 18.88989624 -7.9375 15.375 C-7.59460938 14.74706543 -7.25171875 14.11913086 -6.8984375 13.47216797 C-4.49203528 9.03564981 -2.18403897 4.55008119 0 0 Z " fill="#FFFFFF" transform="translate(75,224)"/>
<path d="M0 0 C0.66 0 1.32 0 2 0 C2.21092285 0.52843506 2.4218457 1.05687012 2.63916016 1.60131836 C7.39746896 13.43770834 11.72682641 23.99956681 21 33 C21 33.66 21 34.32 21 35 C13.97515629 33.87100726 9.61798568 31.47493147 5 26 C0.68233055 19.34086121 -2.70522916 12.11013532 -2 4 C-1 1.71875 -1 1.71875 0 0 Z " fill="#FFFFFF" transform="translate(78,235)"/>
<path d="M0 0 C1.9375 1 1.9375 1 4 3 C5.62977131 9.59249835 4.50452161 15.31542045 3.125 21.875 C2.93808594 22.82375 2.75117187 23.7725 2.55859375 24.75 C1.17114955 31.65770089 1.17114955 31.65770089 0 34 C-0.99 34 -1.98 34 -3 34 C-3.89339407 31.42174867 -4.76487393 28.83933785 -5.625 26.25 C-5.88023438 25.52039063 -6.13546875 24.79078125 -6.3984375 24.0390625 C-8.17808103 18.60126283 -8.17808103 18.60126283 -7.2734375 15.546875 C-6 14 -6 14 -4 13 C-3.21376109 10.83927773 -2.51798774 8.64509125 -1.875 6.4375 C-1.34519531 4.64119141 -1.34519531 4.64119141 -0.8046875 2.80859375 C-0.40636719 1.41833984 -0.40636719 1.41833984 0 0 Z " fill="#FFFFFF" transform="translate(72,279)"/>
<path d="M0 0 C10.82070047 2.04391009 10.82070047 2.04391009 15 5 C15.46189741 6.61664095 15.91006372 8.24086763 16.234375 9.890625 C17.65599043 13.80732056 20.63255457 16.74031696 23.3203125 19.86328125 C25 22 25 22 25 24 C21.93526863 24.50210437 19.81439802 24.5438056 17.17919922 22.78417969 C15.19124462 21.0458221 13.30761494 19.23948771 11.4375 17.375 C10.79103516 16.75753906 10.14457031 16.14007813 9.47851562 15.50390625 C7.61451976 13.70248604 5.79823782 11.86691168 4 10 C3.46777832 9.4524707 2.93555664 8.90494141 2.38720703 8.34082031 C0.97265625 6.7890625 0.97265625 6.7890625 -1 4 C-0.8125 1.625 -0.8125 1.625 0 0 Z " fill="#FFFFFF" transform="translate(320,57)"/>
<path d="M0 0 C6.38997666 0.60282799 13.14315724 1.2420689 19 4 C20.375 7.3125 20.375 7.3125 21 11 C22.17631998 12.71509249 22.17631998 12.71509249 23.625 14.25 C26 17 26 17 26 20 C22.58466157 20.27145031 20.56691332 20.33557611 17.578125 18.56640625 C16.80984375 17.90511719 16.0415625 17.24382812 15.25 16.5625 C14.40179688 15.83804688 13.55359375 15.11359375 12.6796875 14.3671875 C11.79539062 13.58601563 10.91109375 12.80484375 10 12 C9.05382812 11.19820312 8.10765625 10.39640625 7.1328125 9.5703125 C1.89752885 5.04690878 1.89752885 5.04690878 0 3 C0 2.01 0 1.02 0 0 Z " fill="#FFFFFF" transform="translate(294,50)"/>
<path d="M0 0 C1.37188477 -0.00483398 1.37188477 -0.00483398 2.77148438 -0.00976562 C7.32682021 0.02667706 11.06227556 0.14178441 15.1875 2.3125 C14.85503345 5.38781556 14.55645244 6.93082506 12.375 9.1875 C10.1875 10.3125 10.1875 10.3125 8.375 10.125 C7.653125 9.856875 6.93125 9.58875 6.1875 9.3125 C0.40253993 7.41194375 -5.19686781 6.7191646 -11.25 6.1875 C-12.17232422 6.10113281 -13.09464844 6.01476562 -14.04492188 5.92578125 C-16.30030541 5.7154346 -18.55606186 5.51115598 -20.8125 5.3125 C-20.8125 4.6525 -20.8125 3.9925 -20.8125 3.3125 C-13.74075855 0.78776508 -7.4883674 -0.13477983 0 0 Z " fill="#FFFFFF" transform="translate(341.8125,416.6875)"/>
<path d="M0 0 C0.66 0.66 1.32 1.32 2 2 C0.39805929 2.98280415 -1.20663742 3.96111717 -2.8125 4.9375 C-3.70582031 5.48277344 -4.59914063 6.02804688 -5.51953125 6.58984375 C-8 8 -8 8 -11 9 C-12.09228177 10.86642076 -12.09228177 10.86642076 -13 13 C-13.76170956 14.15191866 -14.53304441 15.29751446 -15.3125 16.4375 C-18.79046861 21.89252814 -20.82791285 27.93664183 -23 34 C-23.99 33.67 -24.98 33.34 -26 33 C-23.70920226 19.90706656 -20.42687434 10.64414831 -10 2 C-6.53717808 -0.03811805 -4.0335293 -0.35074168 0 0 Z " fill="#FFFFFF" transform="translate(488,228)"/>
<path d="M0 0 C5.11570911 2.28715288 8.84996428 5.99655851 10.875 11.28515625 C11.32737281 12.824766 11.77288342 14.36641147 12.2109375 15.91015625 C13.43602796 19.15482654 15.37082863 20.79718074 18 23 C17.67 23.66 17.34 24.32 17 25 C10.16964645 23.01298806 4.02873897 20.0933535 0 14 C-0.74199455 9.23588326 -0.54358517 4.77818075 0 0 Z " fill="#FFFFFF" transform="translate(79,286)"/>
<path d="M0 0 C5.40445545 0.60049505 5.40445545 0.60049505 7.56640625 2.05078125 C9.74330748 5.01065513 10.3314961 8.35184268 11.125 11.875 C11.29386719 12.58269531 11.46273438 13.29039063 11.63671875 14.01953125 C12.49895157 17.66535033 13.29305661 21.3210089 14 25 C10.25975289 24.04046016 9.09442333 23.13423425 6.83203125 19.91796875 C6.1437559 18.6827721 5.47091297 17.43886968 4.8125 16.1875 C4.47025391 15.57068359 4.12800781 14.95386719 3.77539062 14.31835938 C-1.19925813 5.22875845 -1.19925813 5.22875845 -0.625 1.6875 C-0.41875 1.130625 -0.2125 0.57375 0 0 Z " fill="#FFFFFF" transform="translate(361,75)"/>
<path d="M0 0 C4.18355965 2.69814481 7.24822719 5.87234079 10 10 C7.3125 10.75 7.3125 10.75 4 11 C2.8553125 10.0409375 2.8553125 10.0409375 1.6875 9.0625 C-2.1463452 6.1202467 -5.32233322 6.43739403 -10 7 C-12.34476551 7.6252708 -14.68060793 8.2863409 -17 9 C-19.9375 9.125 -19.9375 9.125 -22 9 C-16.35914643 2.65403973 -8.82229782 -2.33215525 0 0 Z " fill="#FFFFFF" transform="translate(327,72)"/>
<path d="M0 0 C0.66 0 1.32 0 2 0 C2.55501153 8.99911548 -2.95730142 16.16036075 -8.5078125 22.85546875 C-10 24 -10 24 -14 24 C-14.56213836 20.45852833 -14.85842718 18.41302374 -14 15 C-11.69757289 12.36126331 -9.21016239 10.28042735 -6.484375 8.0859375 C-4.32068371 6.26925331 -2.95301883 4.81821547 -1.5 2.4375 C-1.005 1.633125 -0.51 0.82875 0 0 Z " fill="#FFFFFF" transform="translate(71,219)"/>
<path d="M0 0 C3.93622829 2.04100726 6.48209259 3.74985925 8 8 C5.36 8.33 2.72 8.66 0 9 C-0.33 7.68 -0.66 6.36 -1 5 C-1.80824219 5.2165625 -2.61648438 5.433125 -3.44921875 5.65625 C-4.51785156 5.9346875 -5.58648437 6.213125 -6.6875 6.5 C-7.74324219 6.7784375 -8.79898437 7.056875 -9.88671875 7.34375 C-12.71142672 7.9391715 -15.12836708 8.12786492 -18 8 C-12.5898418 2.28068991 -8.25778941 -1.47056524 0 0 Z " fill="#FFFFFF" transform="translate(305,65)"/>
<path d="M0 0 C2.38536657 0.95414663 3.73911831 1.59810117 5.15625 3.78125 C6.15304965 6.40246388 6.03038956 7.99335101 5.625 10.75 C5.51414062 11.54921875 5.40328125 12.3484375 5.2890625 13.171875 C5.19367188 13.77515625 5.09828125 14.3784375 5 15 C2.44150656 14.46081337 1.20487918 14.19024496 -0.75 12.375 C-2.47331403 9.10070334 -2.33159028 6.6474931 -2 3 C-1.34 2.01 -0.68 1.02 0 0 Z " fill="#FFFFFF" transform="translate(464,134)"/>
<path d="M0 0 C3.66406136 0.24982237 5.53511145 0.58536967 8.3125 3.0625 C10.48992991 6.85284096 10.70569292 9.65897056 11 14 C10.34 14 9.68 14 9 14 C8.608125 13.195625 8.21625 12.39125 7.8125 11.5625 C6.15834944 8.61912687 6.15834944 8.61912687 2.4375 8.1875 C0.62661461 8.08872443 -1.18642273 8 -3 8 C-3 7.34 -3 6.68 -3 6 C-2.01 5.34 -1.02 4.68 0 4 C0 2.68 0 1.36 0 0 Z " fill="#FFFFFF" transform="translate(96,194)"/>
<path d="M0 0 C1.65 0.33 3.3 0.66 5 1 C7 8.625 7 8.625 7 12 C6.34 12 5.68 12 5 12 C4.34 10.68 3.68 9.36 3 8 C2.01 8 1.02 8 0 8 C-1.6875 6.5 -1.6875 6.5 -3 5 C-2.01 3.35 -1.02 1.7 0 0 Z " fill="#FFFFFF" transform="translate(127,70)"/>
<path d="M0 0 C3.17416051 2.56066731 3.7833554 5.09639157 4.6875 9 C4.93886719 10.051875 5.19023438 11.10375 5.44921875 12.1875 C6 15 6 15 6 18 C4.125 17.375 4.125 17.375 2 16 C-0.56626976 10.86746048 -0.19901543 5.59454489 0 0 Z " fill="#FFFFFF" transform="translate(94,343)"/>
<path d="M0 0 C7.19783936 -0.95971191 11.97296029 2.33800119 18 6 C14.28700599 7.85649701 9.87556547 6.00499015 6 5 C3.57740875 4.11983457 1.32923163 3.11398034 -1 2 C-0.67 1.34 -0.34 0.68 0 0 Z " fill="#FFFFFF" transform="translate(243,49)"/>
<path d="M0 0 C0.99 0 1.98 0 3 0 C3.67679658 1.725227 4.34102 3.45538939 5 5.1875 C5.37125 6.15042969 5.7425 7.11335938 6.125 8.10546875 C6.97636772 10.92182358 7.17072647 13.08164439 7 16 C5.109375 15.375 5.109375 15.375 3 14 C1.953125 11.25 1.953125 11.25 1.25 8 C1.00765625 6.9275 0.7653125 5.855 0.515625 4.75 C0 2 0 2 0 0 Z " fill="#FFFFFF" transform="translate(134,390)"/>
<path d="M0 0 C-1.47169499 3.87992315 -3.28823424 5.22480768 -7 7 C-9.65375966 7.79268146 -12.29118799 8.40314312 -15 9 C-15 8.34 -15 7.68 -15 7 C-13.13671875 5.52734375 -13.13671875 5.52734375 -10.6875 3.9375 C-9.88699219 3.41027344 -9.08648437 2.88304687 -8.26171875 2.33984375 C-5.36200781 0.62205298 -3.38342781 0 0 0 Z " fill="#FFFFFF" transform="translate(433,338)"/>
<path d="M0 0 C-0.26953125 1.8671875 -0.26953125 1.8671875 -1 4 C-2.63671875 5.1953125 -2.63671875 5.1953125 -4.6875 6.125 C-5.40292969 6.45242188 -6.11835938 6.77984375 -6.85546875 7.1171875 C-9.53144455 8.21877317 -12.2284378 9.16853134 -15 10 C-13.73664091 6.20992274 -12.46740258 5.81926288 -9.0625 3.875 C-8.16660156 3.35679687 -7.27070313 2.83859375 -6.34765625 2.3046875 C-2.2005988 0 -2.2005988 0 0 0 Z " fill="#FFFFFF" transform="translate(446,312)"/>
<path d="M0 0 C6.45512034 -0.56131481 11.15439723 1.36536213 17 4 C17 4.33 17 4.66 17 5 C10.28299653 5.31985731 5.24273068 4.4793824 -1 2 C-0.67 1.34 -0.34 0.68 0 0 Z " fill="#FFFFFF" transform="translate(182,62)"/>
<path d="M0 0 C6.90352555 -0.51137226 11.74827614 1.13035626 18 4 C18 4.33 18 4.66 18 5 C11.42684522 5.36517527 6.20514474 4.13619737 0 2 C0 1.34 0 0.68 0 0 Z " fill="#FFFFFF" transform="translate(207,54)"/>
<path d="M0 0 C0.66 0 1.32 0 2 0 C2.67756882 1.55780332 3.34159457 3.12150096 4 4.6875 C4.37125 5.55761719 4.7425 6.42773438 5.125 7.32421875 C6.01870488 10.0572002 6.16449676 12.14700934 6 15 C5.01 14.67 4.02 14.34 3 14 C2.05078125 11.34765625 2.05078125 11.34765625 1.3125 8.0625 C1.06113281 6.98097656 0.80976562 5.89945312 0.55078125 4.78515625 C0 2 0 2 0 0 Z " fill="#FFFFFF" transform="translate(115,374)"/>
<path d="M0 0 C4.54805635 -0.17835515 7.8794254 0.00214565 12 2 C12 2.33 12 2.66 12 3 C10.58456585 3.19658808 9.16755969 3.38187546 7.75 3.5625 C6.96109375 3.66691406 6.1721875 3.77132812 5.359375 3.87890625 C2.99467126 4.00027349 1.2488963 3.69633257 -1 3 C-0.67 2.01 -0.34 1.02 0 0 Z " fill="#FFFFFF" transform="translate(155,76)"/>
<path d="M0 0 C0.99 0.33 1.98 0.66 3 1 C1.8125 3.4375 1.8125 3.4375 0 6 C-2.6875 6.8125 -2.6875 6.8125 -5 7 C-3.70700306 4.11562221 -2.34058637 2.12780579 0 0 Z " fill="#FFFFFF" transform="translate(452,268)"/>
<path d="M0 0 C1.2065625 0.0309375 1.2065625 0.0309375 2.4375 0.0625 C2.7675 0.7225 3.0975 1.3825 3.4375 2.0625 C2.7775 2.0625 2.1175 2.0625 1.4375 2.0625 C1.1075 3.7125 0.7775 5.3625 0.4375 7.0625 C-0.2225 7.0625 -0.8825 7.0625 -1.5625 7.0625 C-2.2225 5.0825 -2.8825 3.1025 -3.5625 1.0625 C-2.5625 0.0625 -2.5625 0.0625 0 0 Z " fill="#FFFFFF" transform="translate(367.5625,460.9375)"/>
<path d="M0 0 C1.32 0 2.64 0 4 0 C3.67 1.32 3.34 2.64 3 4 C2.34 4 1.68 4 1 4 C0.67 2.68 0.34 1.36 0 0 Z " fill="#FFFFFF" transform="translate(371,464)"/>
</svg>
